<svg xmlns="http://www.w3.org/2000/svg" viewBox="0 0 175 130"><path opacity=".3" fill-rule="evenodd" clip-rule="evenodd" fill="#1E1E1C" d="M116 29.4H58c-4.7 0-8.5 3.8-8.5 8.5v53.3c0 4.7 3.8 8.5 8.5 8.5h58c4.7 0 8.5-3.8 8.5-8.5V37.9c0-4.7-3.8-8.5-8.5-8.5zM98 42.1c4.5 0 8.2 3.7 8.2 8.2 0 4.5-3.7 8.2-8.2 8.2-4.5 0-8.2-3.7-8.2-8.2 0-4.6 3.6-8.2 8.2-8.2zm15.3 49.8H61.8c-2.3 0-3.3-1.6-2.2-3.7l14.1-27.9c1-2 3-2.2 4.3-.4l14.1 18.5c1.4 1.8 3.8 1.9 5.4.3l3.5-3.5c1.6-1.6 3.9-1.4 5.2.4l9 12.8c1.2 2 .4 3.5-1.9 3.5zm0 0"/></svg>