<?xml version="1.0" standalone="no"?>
<!DOCTYPE svg PUBLIC "-//W3C//DTD SVG 20010904//EN"
 "http://www.w3.org/TR/2001/REC-SVG-20010904/DTD/svg10.dtd">
<svg version="1.0" xmlns="http://www.w3.org/2000/svg"
 width="300.000000pt" height="300.000000pt" viewBox="0 0 300.000000 300.000000"
 preserveAspectRatio="xMidYMid meet">
<metadata>
Created by potrace 1.11, written by Peter Selinger 2001-2013
</metadata>
<g transform="translate(0.000000,300.000000) scale(0.100000,-0.100000)"
fill="#000000" stroke="none">
<path d="M1381 2974 c-1 -6 -11 -10 -23 -9 -13 1 -29 -2 -35 -8 -9 -6 -13 -6
-13 2 0 7 -5 9 -10 6 -8 -5 -7 -11 1 -21 7 -8 7 -14 1 -14 -5 0 -12 7 -16 15
-5 15 -46 21 -46 7 0 -4 -8 -8 -17 -9 -53 -2 -83 -8 -83 -16 0 -5 8 -6 18 -2
13 5 14 4 5 -6 -9 -8 -16 -9 -25 -2 -23 18 -98 -4 -98 -30 0 -8 -4 -7 -11 3
-8 11 -12 12 -16 2 -2 -6 -8 -10 -13 -7 -12 7 -191 -76 -185 -85 3 -5 -3 -6
-13 -3 -10 2 -29 -6 -45 -21 -15 -14 -27 -22 -27 -19 0 4 -7 -2 -16 -13 -8
-10 -12 -13 -9 -6 4 8 -11 1 -34 -14 -28 -18 -40 -32 -36 -42 4 -12 3 -12 -9
-3 -11 9 -19 6 -39 -18 -14 -17 -28 -27 -31 -24 -3 4 -6 -1 -6 -11 0 -9 -4
-15 -9 -12 -11 7 -43 -29 -34 -38 5 -4 -1 -6 -12 -4 -12 2 -19 -2 -18 -9 2 -7
-1 -12 -6 -10 -14 4 -121 -117 -116 -131 3 -7 1 -11 -4 -8 -11 7 -33 -18 -24
-27 3 -4 1 -7 -5 -7 -17 0 -85 -107 -77 -120 3 -6 1 -9 -5 -8 -12 3 -87 -127
-92 -159 -2 -10 -6 -20 -10 -24 -8 -6 -56 -138 -61 -166 -1 -10 -6 -24 -10
-30 -5 -7 -6 -13 -3 -13 3 0 1 -12 -5 -26 -5 -15 -12 -43 -14 -63 -3 -20 -8
-47 -11 -61 -14 -58 -13 -347 2 -440 47 -304 190 -585 409 -804 121 -122 197
-181 335 -260 188 -109 465 -186 670 -186 l60 0 0 110 0 110 -42 1 c-98 1
-228 24 -342 59 -204 62 -367 161 -522 315 -183 182 -294 391 -351 657 -24
113 -23 383 1 483 9 39 19 80 21 92 3 12 19 59 37 105 64 168 149 303 276 435
17 17 28 34 25 37 -4 3 1 6 10 6 9 0 20 6 24 13 13 22 147 121 201 149 12 6
22 17 22 24 0 8 6 11 15 7 9 -3 23 1 33 10 9 8 34 20 55 28 20 7 37 17 37 21
0 4 5 7 12 6 15 -4 17 24 3 35 -6 5 -4 7 5 4 8 -2 15 -10 15 -18 1 -8 7 -12
15 -10 8 2 20 4 25 5 6 1 15 5 21 8 6 4 26 10 45 13 18 3 36 9 39 13 3 4 18 8
33 9 16 0 35 9 43 19 13 17 13 17 8 1 -5 -13 -2 -16 10 -11 9 3 13 10 10 15
-3 5 0 9 5 9 6 0 11 -4 11 -8 0 -4 11 -9 25 -10 18 -1 25 3 24 16 0 10 -3 12
-6 5 -2 -7 -9 -13 -15 -13 -6 0 -6 6 2 15 7 8 17 12 23 8 6 -4 8 0 4 10 -4 11
-2 14 9 10 11 -4 12 -9 3 -19 -6 -7 -9 -19 -6 -26 2 -8 10 -1 18 16 12 25 11
30 -6 42 -17 13 -21 12 -41 -11 -12 -14 -25 -25 -29 -25 -5 0 2 11 15 25 26
27 12 35 -15 9 -9 -9 -19 -14 -22 -11 -3 4 11 16 31 28 20 11 36 25 36 31 0
11 -12 5 -57 -29 -18 -13 -33 -20 -33 -16 0 10 71 58 85 58 6 0 10 -9 10 -19
0 -11 6 -21 13 -24 6 -2 10 2 9 10 -2 7 -2 10 0 6 9 -17 21 -7 21 17 0 14 -4
25 -9 25 -5 0 -9 -5 -9 -11 0 -5 -5 -7 -11 -3 -8 5 -6 10 5 16 23 13 31 3 31
-35 0 -17 7 -33 14 -35 10 -3 11 0 5 9 -6 12 -5 12 9 0 10 -8 20 -11 23 -8 3
3 -3 12 -15 19 -12 7 -21 16 -21 21 0 4 5 5 10 2 6 -3 10 -1 10 4 0 6 -3 11
-7 11 -5 0 -15 13 -25 29 -13 24 -14 30 -3 35 9 3 12 0 9 -8 -3 -7 2 -13 10
-13 16 0 29 23 21 37 -3 5 -18 5 -35 0 -20 -6 -30 -5 -34 3 -3 8 -5 8 -5 1z
m-1 -24 c8 -5 11 -10 5 -10 -5 0 -17 5 -25 10 -8 5 -10 10 -5 10 6 0 17 -5 25
-10z m-100 -20 c12 -12 15 -20 7 -20 -7 0 -18 9 -25 20 -7 11 -10 20 -7 20 3
0 14 -9 25 -20z m109 -3 c21 8 12 -1 -17 -16 -17 -9 -22 -9 -20 0 2 6 -3 14
-10 16 -7 3 -10 -1 -6 -10 3 -8 1 -18 -5 -22 -7 -4 -8 0 -4 11 4 12 3 15 -6
10 -10 -6 -10 -4 0 12 11 18 15 19 32 7 11 -7 27 -11 36 -8z m-203 -12 c-3 -9
0 -15 9 -15 8 0 15 -5 15 -10 0 -7 -6 -7 -20 0 -16 9 -19 40 -3 40 3 0 3 -7
-1 -15z m44 5 c0 -5 -4 -10 -10 -10 -5 0 -10 5 -10 10 0 6 5 10 10 10 6 0 10
-4 10 -10z m-126 -20 c-6 -6 -15 -5 -24 1 -13 9 -12 10 3 5 9 -3 17 0 17 6 0
6 3 8 7 5 4 -4 2 -12 -3 -17z m23 -9 c0 -11 -4 -18 -8 -15 -4 2 -10 -3 -13
-12 -3 -8 -10 -13 -15 -10 -5 4 -12 1 -14 -4 -3 -6 -4 -5 -2 2 1 7 7 12 12 11
6 -1 16 9 23 22 16 30 19 31 17 6z m125 12 c-7 -3 -18 -16 -23 -30 -5 -14 -12
-23 -16 -20 -8 9 25 57 40 56 9 0 8 -2 -1 -6z m38 -38 c0 -5 -5 -3 -10 5 -5 8
-10 20 -10 25 0 6 5 3 10 -5 5 -8 10 -19 10 -25z m20 20 c0 -8 -2 -15 -4 -15
-2 0 -6 7 -10 15 -3 8 -1 15 4 15 6 0 10 -7 10 -15z m-240 -5 c0 -5 -4 -10
-10 -10 -5 0 -10 5 -10 10 0 6 5 10 10 10 6 0 10 -4 10 -10z m110 0 c18 -12 2
-12 -25 0 -13 6 -15 9 -5 9 8 0 22 -4 30 -9z m-210 -20 c0 -5 -8 -10 -17 -10
-15 0 -16 2 -3 10 19 12 20 12 20 0z m210 -20 c0 -6 -5 -10 -11 -10 -5 0 -8 4
-5 9 3 5 -1 12 -10 15 -11 4 -14 0 -12 -17 2 -17 -2 -22 -22 -24 -22 -1 -23
-1 -2 4 12 2 20 9 16 14 -3 6 -3 17 0 25 4 12 10 13 26 4 11 -6 20 -15 20 -20z
m82 13 c-6 -3 -10 -9 -7 -14 4 -5 -1 -6 -10 -3 -14 6 -14 8 2 19 10 8 20 11
23 8 3 -3 -1 -8 -8 -10z m-270 -35 c-6 -6 -12 -6 -17 3 -6 8 -4 10 5 4 9 -5
10 -1 6 16 -6 21 -6 22 5 6 7 -13 8 -22 1 -29z m53 32 c-3 -5 -12 -10 -18 -10
-7 0 -6 4 3 10 19 12 23 12 15 0z m70 -10 c-3 -5 -12 -10 -18 -10 -7 0 -6 4 3
10 19 12 23 12 15 0z m99 -15 c-7 -16 -24 -21 -24 -6 0 8 7 13 27 20 1 1 0 -6
-3 -14z m-131 -40 c9 0 17 -4 16 -10 0 -5 10 -13 23 -17 l23 -6 -23 -1 c-15
-1 -21 -5 -16 -13 4 -6 3 -8 -4 -4 -6 3 -9 16 -7 27 3 17 0 20 -15 16 -13 -3
-24 3 -35 19 -21 32 -19 45 3 14 9 -14 25 -25 35 -25z m2 35 c3 -5 1 -10 -4
-10 -6 0 -11 5 -11 10 0 6 2 10 4 10 3 0 8 -4 11 -10z m160 -12 c-9 -6 -19 -7
-22 -4 -4 3 -1 6 6 6 7 0 9 4 6 10 -4 6 1 7 11 3 15 -6 15 -7 -1 -15z m-275
-7 c0 -5 -10 -11 -22 -14 -21 -5 -21 -5 -6 7 10 7 14 17 10 21 -4 5 -1 5 6 1
6 -4 12 -11 12 -15z m50 -1 c0 -5 -2 -10 -4 -10 -3 0 -8 5 -11 10 -3 6 -1 10
4 10 6 0 11 -4 11 -10z m165 -8 c0 -6 -4 -12 -9 -11 -5 0 -13 -5 -18 -13 -8
-10 -9 -10 -5 2 2 8 10 14 16 13 6 -2 11 2 11 8 0 7 -10 9 -27 5 -21 -5 -24
-4 -13 4 19 13 45 9 45 -8z m115 3 c0 -1 -12 -2 -26 -2 -17 0 -22 2 -13 7 10
7 39 3 39 -5z m-285 -27 c5 4 5 1 1 -6 -4 -7 -11 -10 -16 -7 -4 3 -11 -1 -14
-7 -3 -7 -3 -2 0 11 5 17 3 21 -6 16 -9 -6 -11 -4 -5 5 6 10 11 10 20 -3 7 -9
16 -13 20 -9z m38 -5 c15 -17 16 -23 5 -29 -7 -4 -10 -4 -6 1 4 4 1 14 -7 22
-8 8 -15 19 -15 25 0 6 1 9 3 7 1 -2 10 -14 20 -26z m197 5 c0 -6 -8 -4 -17 3
-15 12 -16 12 -9 -6 5 -15 4 -17 -5 -8 -6 6 -8 16 -5 22 8 12 36 3 36 -11z
m-378 -2 c7 4 8 2 4 -5 -9 -13 -26 -5 -25 12 0 9 2 8 6 -1 2 -6 10 -9 15 -6z
m60 -14 c3 -10 0 -19 -6 -19 -6 0 -11 10 -11 23 0 25 10 23 17 -4z m-138 7 c3
-3 -5 -5 -19 -5 -13 0 -22 3 -19 7 4 8 30 6 38 -2z m167 -36 c-12 -20 -14 -14
-5 12 4 9 9 14 11 11 3 -2 0 -13 -6 -23z m-197 -12 c-2 -3 -12 3 -22 13 -16
17 -16 18 5 5 12 -7 20 -15 17 -18z m102 10 c0 -11 -5 -17 -13 -14 -10 4 -11
9 -2 19 15 18 15 18 15 -5z m-70 -19 c-17 -16 -18 -16 -5 5 7 12 15 20 18 17
3 -2 -3 -12 -13 -22z m298 20 c2 -4 -4 -8 -14 -8 -10 0 -16 4 -14 8 3 4 9 8
14 8 5 0 11 -4 14 -8z m-414 -17 c-7 -8 -17 -15 -23 -15 -6 0 -2 7 9 15 25 19
30 19 14 0z m330 5 c0 -5 -5 -10 -11 -10 -5 0 -7 5 -4 10 3 6 8 10 11 10 2 0
4 -4 4 -10z m-79 -18 c-11 -20 -38 -24 -38 -6 0 11 3 11 16 1 12 -10 14 -9 9
4 -4 9 -1 16 8 16 9 0 10 -5 5 -15z m-221 4 c0 -2 -8 -10 -17 -17 -16 -13 -17
-12 -4 4 13 16 21 21 21 13z m231 -29 c-10 -9 -11 -8 -5 6 3 10 9 15 12 12 3
-3 0 -11 -7 -18z m-130 -4 c13 -16 12 -17 -3 -4 -10 7 -18 15 -18 17 0 8 8 3
21 -13z m-140 -20 c13 -16 12 -17 -3 -4 -10 7 -18 15 -18 17 0 8 8 3 21 -13z
m134 -21 c-3 -3 1 -12 8 -21 11 -14 10 -14 -6 -2 -9 8 -15 16 -12 19 3 3 -3
15 -12 26 -18 21 -18 21 5 2 12 -11 20 -21 17 -24z m107 24 c7 4 8 2 4 -5 -9
-13 -26 -5 -25 12 0 9 2 8 6 -1 2 -6 10 -9 15 -6z m-141 -23 c13 -16 12 -17
-3 -4 -10 7 -18 15 -18 17 0 8 8 3 21 -13z m70 -10 c13 -16 12 -17 -3 -4 -10
7 -18 15 -18 17 0 8 8 3 21 -13z m-215 -13 c0 -12 -4 -16 -9 -11 -5 5 -6 14
-3 20 10 15 12 14 12 -9z m139 -19 c3 -5 2 -12 -3 -15 -5 -3 -9 1 -9 9 0 17 3
19 12 6z m40 -9 c-3 -3 -11 0 -18 7 -9 10 -8 11 6 5 10 -3 15 -9 12 -12z
m-335 -72 c0 -5 -5 -10 -11 -10 -5 0 -7 5 -4 10 3 6 8 10 11 10 2 0 4 -4 4
-10z m-40 -34 c0 -2 -7 -7 -16 -10 -8 -3 -12 -2 -9 4 6 10 25 14 25 6z m16
-48 c3 -4 -1 -5 -10 -4 -8 1 -18 5 -22 8 -3 4 1 5 10 4 8 -1 18 -5 22 -8z
m144 8 c0 -3 -4 -8 -10 -11 -5 -3 -10 -1 -10 4 0 6 5 11 10 11 6 0 10 -2 10
-4z m-222 -51 c-3 -3 -9 2 -12 12 -6 14 -5 15 5 6 7 -7 10 -15 7 -18z m97 6
c3 -5 2 -12 -3 -15 -5 -3 -9 1 -9 9 0 17 3 19 12 6z m100 0 c-9 -8 -36 -10
-30 -2 2 4 11 8 20 8 8 0 13 -3 10 -6z m-158 -46 c0 -8 -4 -12 -9 -9 -5 3 -6
10 -3 15 9 13 12 11 12 -6z"/>
<path d="M1465 2953 c-8 -34 -8 -37 6 -42 7 -2 9 1 5 8 -4 7 -2 10 5 9 6 -2
14 3 16 10 3 6 -1 10 -9 9 -7 -2 -10 -2 -5 0 4 3 4 10 0 16 -3 7 3 4 14 -6 19
-16 22 -16 36 -3 12 12 17 13 20 3 4 -9 8 -8 17 3 10 13 11 13 7 0 -2 -8 -12
-14 -21 -13 -12 0 -15 -4 -12 -14 3 -8 6 -17 6 -20 0 -2 8 3 17 13 16 16 18
15 31 -5 8 -11 19 -21 24 -21 5 0 0 14 -12 31 -22 30 -22 47 -1 34 6 -3 9 -10
6 -15 -6 -9 58 -4 79 6 6 3 3 -1 -7 -9 -10 -8 -14 -18 -9 -21 5 -3 12 -2 16 1
13 13 44 10 39 -4 -6 -16 -23 -17 -23 -1 0 15 -13 1 -16 -18 -3 -21 28 -14 46
11 8 11 14 24 12 28 -1 5 2 6 8 2 6 -3 7 -11 4 -17 -5 -7 -2 -8 6 -3 9 6 11 4
5 -5 -6 -9 -4 -11 5 -5 9 5 11 4 6 -3 -4 -7 -2 -20 4 -29 11 -17 11 -17 6 0
-8 24 19 54 28 32 3 -8 11 -15 17 -15 8 0 9 4 0 13 -6 8 -7 17 -3 22 4 4 -3 5
-15 2 -13 -3 -26 -1 -29 4 -3 5 -10 7 -15 4 -5 -4 -9 -2 -9 3 0 6 -11 9 -24 8
-13 0 -22 -4 -19 -8 2 -5 0 -8 -6 -8 -5 0 -11 5 -13 12 -4 12 -31 16 -165 21
-68 3 -72 1 -78 -20z"/>
<path d="M1494 2916 c-30 -24 -30 -24 -43 -4 -7 11 -15 17 -18 14 -4 -3 2 -15
11 -25 10 -11 16 -23 13 -28 -3 -4 1 -14 9 -20 7 -7 15 -9 19 -4 3 5 -1 12 -7
15 -7 3 -3 3 9 0 18 -4 22 -2 17 10 -3 9 -11 13 -16 10 -6 -4 -5 3 1 15 13 24
23 28 15 6 -5 -11 -2 -13 10 -9 9 3 13 11 10 18 -3 6 2 2 10 -8 9 -11 16 -23
16 -28 0 -4 5 -8 10 -8 15 0 11 12 -14 43 l-23 28 -29 -25z"/>
<path d="M1627 2933 c-4 -3 -2 -12 4 -19 7 -8 6 -14 -2 -20 -7 -4 -19 1 -28
13 -13 15 -19 17 -28 8 -9 -9 -9 -15 0 -24 8 -8 8 -14 -2 -23 -10 -11 -15 -10
-25 5 -14 19 -36 23 -36 7 0 -5 7 -10 15 -10 8 0 16 -4 16 -10 1 -5 2 -15 3
-22 0 -6 7 -13 14 -16 7 -2 10 2 6 12 -3 9 -1 16 5 16 20 0 26 -5 23 -17 -2
-7 2 -13 8 -13 13 0 13 37 0 45 -14 9 -12 28 3 22 6 -2 11 -10 10 -16 -4 -13
7 -14 27 -1 13 9 13 10 0 10 -12 0 -13 2 -1 9 7 5 11 13 8 18 -3 5 0 10 7 10
8 0 12 -6 9 -14 -4 -9 0 -11 12 -6 17 6 16 8 -5 25 -24 19 -33 22 -43 11z"/>
<path d="M1852 2923 c7 -28 -7 -39 -27 -23 -8 7 -16 9 -16 4 -1 -5 -2 -16 -3
-24 -1 -10 -11 -15 -28 -14 -32 1 -34 -2 -12 -24 15 -14 15 -17 -2 -29 -21
-16 -11 -17 17 -3 15 8 17 15 10 29 -7 13 -6 18 4 18 7 0 11 -6 8 -13 -2 -6 0
-15 6 -19 7 -4 9 1 5 12 -4 13 -3 15 4 5 5 -8 13 -14 17 -14 4 0 12 6 17 14 7
9 8 7 3 -7 -3 -11 -3 -16 1 -12 4 4 14 1 22 -6 13 -10 14 -9 7 3 -4 8 -5 12 0
8 4 -4 14 -3 22 4 11 9 18 7 31 -7 16 -18 16 -18 -1 -5 -14 10 -20 11 -30 1
-9 -10 -8 -11 4 -6 25 9 33 -14 13 -36 -15 -17 -13 -23 7 -21 9 1 4 -36 -6
-45 -4 -5 -5 -2 -1 5 4 6 2 12 -4 12 -6 0 -9 4 -6 9 3 5 -2 15 -11 22 -12 10
-15 10 -9 1 9 -15 -14 -12 -27 3 -5 6 -7 3 -3 -7 3 -10 1 -18 -4 -18 -6 0 -10
8 -10 17 0 15 -2 14 -16 -3 -15 -18 -15 -18 -5 3 11 22 -2 43 -14 23 -12 -19
-26 -10 -20 13 5 20 5 20 -9 -3 -8 -14 -12 -29 -9 -34 4 -5 1 -6 -5 -2 -6 4
-8 14 -5 23 5 13 2 15 -13 9 -23 -9 -42 -14 -31 -9 4 3 5 9 1 14 -3 5 -13 5
-24 -1 -16 -9 -19 -8 -14 7 3 10 -2 7 -10 -7 -8 -14 -15 -20 -16 -15 0 12
-110 15 -110 3 0 -4 15 -7 33 -8 70 0 133 -6 146 -15 9 -5 12 -4 8 2 -4 6 0
13 8 16 9 4 12 1 9 -7 -7 -18 27 -30 37 -14 6 9 10 8 15 -5 4 -12 13 -16 25
-12 11 4 19 2 19 -4 0 -5 9 -8 20 -6 11 2 20 -2 20 -8 0 -8 3 -8 9 1 7 11 9
11 14 -2 4 -10 13 -13 23 -9 10 4 15 2 11 -4 -3 -5 -1 -10 6 -11 28 -2 46 -9
61 -21 9 -7 22 -11 31 -8 18 7 30 -9 13 -17 -7 -3 -2 -3 11 0 17 5 21 3 16 -6
-5 -8 -4 -11 3 -6 6 3 15 -2 21 -11 5 -10 13 -14 17 -10 4 4 16 -1 26 -10 13
-12 18 -13 16 -4 -2 7 2 15 8 18 7 2 10 -6 9 -21 -3 -22 -1 -24 15 -16 15 8
20 6 25 -11 5 -16 9 -18 21 -8 8 6 17 9 21 5 4 -3 -2 -13 -13 -22 -10 -8 -14
-13 -7 -10 6 4 14 2 18 -3 3 -6 12 -8 21 -4 8 3 14 2 13 -3 -4 -22 2 -33 15
-28 9 3 19 -4 27 -18 6 -13 18 -27 26 -31 7 -5 11 -13 7 -18 -3 -5 -2 -8 3 -7
21 6 52 -14 47 -30 -5 -14 -4 -15 4 -2 12 16 -2 40 -22 40 -7 0 -22 12 -35 26
-18 20 -20 28 -10 40 14 17 37 15 61 -6 24 -20 23 -33 -2 -20 -11 6 -20 7 -20
3 0 -4 -4 -1 -10 7 -5 8 -11 12 -14 10 -2 -3 4 -16 15 -30 13 -17 17 -19 13
-7 -6 17 -5 18 14 6 11 -7 18 -17 16 -21 -3 -4 -1 -8 5 -8 5 0 9 12 7 28 -1
15 1 35 6 45 7 13 5 26 -6 42 -13 20 -13 25 -1 35 8 6 19 9 24 5 7 -3 8 0 5 9
-7 18 -39 30 -54 21 -6 -4 -8 -11 -5 -16 8 -11 -6 -11 -24 0 -11 7 -8 12 12
22 23 13 24 16 11 33 -10 14 -14 16 -14 5 -1 -8 -7 -3 -15 11 -8 14 -14 19
-15 13 0 -7 -5 -13 -11 -13 -6 0 -8 9 -4 23 5 19 4 20 -5 4 -6 -9 -8 -22 -5
-27 9 -14 -9 -12 -23 2 -15 15 -16 29 -1 26 6 -2 14 4 16 12 4 13 3 13 -6 0
-9 -13 -15 -9 -13 10 0 3 -9 7 -20 7 -20 2 -20 1 -2 -13 18 -15 18 -15 1 -10
-10 3 -22 6 -26 6 -4 0 -7 9 -8 19 -1 15 3 18 15 14 9 -3 14 -3 10 1 -3 4 -14
9 -25 11 -10 1 -17 8 -15 15 1 6 -2 9 -7 6 -5 -3 -14 1 -21 9 -7 8 -16 12 -21
9 -5 -3 -9 1 -9 8 0 11 -2 10 -9 0 -7 -11 -9 -11 -14 2 -3 8 -15 20 -26 26
-18 9 -20 8 -15 -7 4 -13 -1 -10 -18 8 -13 14 -30 25 -38 24 -8 0 -24 8 -35
18 -11 10 -21 13 -23 8 -2 -6 -13 -4 -28 5 -13 9 -24 12 -24 8 0 -5 -5 -2 -10
7 -6 10 -20 15 -35 14 -14 -2 -25 2 -25 8 0 5 -3 7 -7 4 -3 -4 -13 -1 -21 6
-13 10 -15 9 -10 -10z m65 -18 c12 1 20 -2 17 -7 -3 -4 0 -8 6 -8 7 0 10 -7 6
-17 -5 -15 -4 -15 9 1 8 11 15 14 15 7 0 -7 4 -10 9 -6 5 3 12 1 16 -5 4 -6
11 -8 16 -4 6 3 18 0 27 -8 9 -8 24 -14 32 -13 8 0 23 -10 34 -23 14 -17 21
-20 31 -12 10 9 16 6 25 -10 6 -11 15 -18 21 -15 12 8 12 -2 -1 -26 -14 -25
-3 -44 15 -29 11 9 14 7 12 -9 -2 -26 -5 -26 -41 -2 -29 19 -46 57 -23 48 7
-3 11 -11 9 -18 -3 -12 -1 -12 10 0 10 11 10 14 0 18 -6 3 -9 10 -6 15 4 7 2
8 -4 4 -8 -5 -10 -1 -6 11 3 10 -2 7 -10 -7 -14 -24 -17 -24 -20 -1 0 5 -4 13
-8 17 -4 3 -5 -3 -3 -15 3 -15 0 -21 -8 -18 -7 2 -11 11 -9 21 3 19 -9 21 -28
4 -11 -10 -11 -9 0 7 14 19 14 19 -3 6 -9 -8 -20 -11 -24 -7 -3 3 -1 6 7 6 9
0 10 3 1 13 -6 8 -7 18 -3 22 4 5 2 5 -5 1 -7 -4 -9 -14 -6 -24 6 -15 5 -15
-11 -3 -17 14 -17 16 0 28 18 13 18 13 -1 11 -11 -2 -26 -8 -34 -12 -10 -7
-12 -6 -6 4 5 9 4 11 -4 6 -6 -4 -9 -12 -5 -17 3 -5 9 -7 14 -4 4 3 13 -2 20
-10 9 -11 8 -14 -9 -12 -12 1 -21 6 -21 11 0 5 -3 6 -7 3 -3 -4 -14 0 -24 9
-11 10 -23 13 -31 8 -21 -13 -36 -13 -42 1 -3 8 -13 11 -24 8 -11 -2 -23 0
-26 6 -4 6 -2 11 5 11 8 0 7 5 -2 18 -13 15 -12 16 4 3 13 -11 20 -11 32 -1 8
7 12 17 9 22 -4 7 0 7 12 0 11 -5 29 -8 41 -7z m119 -113 c16 -8 24 -8 34 1 8
8 11 8 7 1 -4 -7 0 -17 8 -24 7 -6 11 -18 8 -26 -4 -11 -8 -12 -20 -3 -7 7
-12 17 -9 24 2 6 -2 12 -9 12 -7 0 -11 -6 -8 -14 3 -7 0 -13 -7 -13 -6 0 -9 4
-6 9 3 5 -1 11 -9 15 -22 8 -18 -2 13 -31 26 -25 26 -25 2 -12 -14 7 -30 12
-37 11 -21 -5 -26 21 -7 36 14 11 15 13 3 9 -9 -3 -22 0 -28 6 -8 8 -9 4 -6
-13 3 -13 -1 -28 -8 -32 -9 -6 -9 -8 0 -8 7 0 10 -7 7 -17 -4 -11 -2 -14 3 -8
4 6 20 11 35 11 24 1 27 -2 24 -22 -3 -17 -1 -21 10 -17 8 3 14 0 14 -6 0 -16
-25 -14 -40 4 -7 8 -17 12 -23 8 -6 -4 -7 -1 -2 7 6 10 4 12 -9 7 -17 -7 -24
3 -31 40 -1 10 -8 17 -14 15 -7 -1 -4 8 6 22 20 26 60 29 99 8z m219 -72 c6
-30 -14 -57 -27 -38 -8 10 -11 10 -15 1 -2 -7 -11 -13 -19 -13 -9 0 -12 5 -9
10 3 6 1 10 -5 10 -7 0 -10 -7 -6 -17 5 -16 4 -15 -9 1 -8 10 -12 23 -8 29 3
6 1 7 -5 3 -8 -5 -9 -13 -2 -25 9 -18 4 -31 -12 -31 -5 0 -7 4 -4 8 7 12 -12
38 -21 29 -4 -5 -1 -12 7 -17 13 -8 13 -10 1 -10 -11 0 -9 -4 5 -15 10 -8 26
-14 34 -14 10 0 11 2 2 6 -6 2 -10 9 -7 13 3 5 12 7 21 3 13 -5 13 -8 -2 -24
-9 -10 -22 -15 -28 -11 -6 3 -13 7 -16 7 -6 0 -27 17 -70 57 -29 26 -31 41 -4
31 17 -6 18 8 2 27 -7 8 0 4 15 -10 16 -14 28 -20 27 -15 -4 18 12 55 21 49 5
-3 7 -9 4 -14 -3 -5 -1 -11 5 -15 6 -4 8 -11 4 -16 -3 -6 0 -9 7 -8 8 2 23 -2
34 -8 22 -11 60 -11 72 1 5 4 4 7 -2 6 -21 -5 -36 0 -30 10 3 5 13 6 22 3 15
-6 16 -5 3 9 -15 16 -27 17 -47 5 -7 -5 -9 0 -6 13 5 17 8 18 21 8 14 -12 14
-10 3 12 l-13 25 26 -25 c15 -14 28 -37 31 -50z m-432 45 c-3 -9 -8 -14 -10
-11 -3 3 -2 9 2 15 9 16 15 13 8 -4z m82 -24 c-9 -8 -36 -10 -30 -2 2 4 11 8
20 8 8 0 13 -3 10 -6z m407 -70 c22 -25 27 -27 43 -15 16 12 20 12 28 -1 4 -9
12 -13 18 -10 5 4 9 1 9 -4 0 -6 -7 -11 -15 -11 -8 0 -15 -4 -15 -10 0 -5 -7
-7 -15 -4 -8 4 -12 10 -9 15 3 5 10 6 16 3 7 -4 8 -2 4 5 -6 9 -11 9 -22 0
-11 -9 -18 -8 -32 4 -11 11 -22 13 -32 7 -16 -10 -30 -4 -30 11 0 6 4 8 8 5 4
-2 14 -1 21 3 9 6 10 11 2 15 -6 4 -11 2 -11 -4 0 -6 -4 -9 -9 -6 -5 3 -16 -6
-25 -19 -9 -14 -21 -23 -26 -20 -6 4 -10 1 -10 -4 0 -6 -4 -11 -9 -11 -6 0 -9
9 -8 20 1 20 22 34 37 25 4 -2 15 4 25 15 24 26 29 25 57 -9z m-23 -32 c8 6
32 -4 64 -25 50 -33 75 -38 70 -15 -2 6 4 11 12 11 22 0 18 -16 -7 -34 -15
-11 -25 -12 -34 -5 -9 7 -19 7 -31 0 -31 -16 -67 21 -40 40 5 4 4 10 -2 13 -6
4 -11 2 -11 -5 0 -8 -5 -7 -17 2 -16 12 -17 12 -6 -1 16 -21 1 -42 -31 -46
-18 -2 -27 3 -32 18 -5 16 -8 18 -15 7 -4 -7 -12 -10 -16 -5 -4 5 -2 11 4 13
7 3 23 13 35 23 14 11 27 15 33 10 6 -5 17 -5 24 -1z m31 -74 c7 -9 19 -14 27
-11 16 7 17 -10 1 -20 -6 -4 -19 2 -28 13 -16 21 -17 21 -29 1 -16 -26 -26
-16 -11 11 13 25 23 26 40 6z m75 -6 c4 -6 13 -8 21 -5 17 7 36 -27 28 -49 -5
-12 -9 -13 -21 -3 -23 18 -46 19 -65 1 -11 -10 -18 -12 -18 -5 0 7 -8 12 -18
12 -11 0 -18 8 -19 21 l-2 21 23 -21 24 -22 13 30 c15 33 24 38 34 20z"/>
<path d="M1850 2878 c-17 -15 -19 -19 -7 -15 11 4 25 1 34 -8 12 -12 18 -13
29 -4 11 9 19 8 37 -7 12 -10 19 -15 15 -10 -4 5 -2 16 5 25 11 14 10 14 -5 2
-10 -7 -19 -11 -19 -7 -1 3 -2 10 -3 15 -4 30 -55 35 -86 9z m74 3 c6 -1 1 -7
-10 -15 -13 -10 -23 -11 -31 -4 -20 16 -15 28 10 24 12 -3 26 -5 31 -5z"/>
<path d="M1886 2868 c3 -5 10 -6 15 -3 13 9 11 12 -6 12 -8 0 -12 -4 -9 -9z"/>
<path d="M2046 2829 c3 -6 8 -8 11 -5 3 3 15 0 27 -6 16 -8 18 -8 10 1 -14 15
-57 24 -48 10z"/>
<path d="M1945 2781 c-3 -5 -2 -12 3 -15 5 -3 9 1 9 9 0 17 -3 19 -12 6z"/>
<path d="M1995 2760 c3 -5 8 -10 11 -10 2 0 4 5 4 10 0 6 -5 10 -11 10 -5 0
-7 -4 -4 -10z"/>
<path d="M1990 2716 c0 -2 7 -9 15 -16 13 -11 14 -10 9 4 -5 14 -24 23 -24 12z"/>
<path d="M2109 2734 c-1 -5 -2 -13 -4 -19 -1 -5 -3 -14 -3 -19 -1 -5 -8 -3
-16 3 -17 15 -28 1 -15 -19 7 -13 9 -13 9 -1 0 11 4 9 15 -5 12 -16 14 -16 9
-2 -4 11 0 20 9 24 8 3 14 12 13 19 -3 18 -16 32 -17 19z"/>
<path d="M2256 2627 c4 -11 2 -16 -7 -14 -8 2 -11 2 -6 0 4 -3 7 -9 7 -14 0
-6 -5 -7 -12 -3 -7 5 -8 3 -3 -6 6 -10 11 -9 21 4 9 13 13 14 17 4 3 -7 6 -8
6 -2 1 5 -6 19 -14 30 -13 16 -14 16 -9 1z"/>
<path d="M2336 2595 c-3 -8 -1 -15 4 -15 6 0 10 7 10 15 0 8 -2 15 -4 15 -2 0
-6 -7 -10 -15z"/>
<path d="M2380 2540 c0 -5 5 -10 11 -10 5 0 7 5 4 10 -3 6 -8 10 -11 10 -2 0
-4 -4 -4 -10z"/>
<path d="M2410 2536 c0 -2 7 -9 15 -16 13 -11 14 -10 9 4 -5 14 -24 23 -24 12z"/>
<path d="M1749 2915 c-1 -6 -1 -13 0 -17 0 -5 -3 -8 -9 -8 -35 0 -48 -15 -46
-53 2 -24 6 -31 19 -29 9 2 17 -2 17 -8 0 -5 5 -10 10 -10 6 0 9 3 9 8 -4 21
2 32 14 27 6 -4 2 2 -11 14 -22 19 -16 35 13 36 6 1 9 7 7 15 -4 19 -22 37
-23 25z m-18 -48 c-12 -12 -2 -39 12 -30 6 3 7 1 3 -5 -4 -6 -13 -9 -21 -6 -8
4 -13 10 -10 14 3 5 1 11 -5 15 -14 9 -5 22 15 22 10 0 12 -4 6 -10z"/>
<path d="M1656 2878 c2 -4 -5 -12 -16 -18 -26 -14 -25 -26 1 -41 18 -9 20 -8
15 8 -3 11 1 28 10 39 8 10 12 13 8 5 -4 -8 -8 -30 -10 -50 -2 -30 -1 -33 8
-17 6 11 12 34 14 52 2 26 -1 32 -16 31 -10 -1 -17 -4 -14 -9z"/>
<path d="M1503 2853 c-7 -2 -13 -9 -13 -15 0 -6 6 -6 15 2 10 9 15 9 15 1 0
-12 -1 -12 -45 -15 -16 -1 -35 -5 -41 -9 -7 -4 -14 0 -18 8 -3 8 -11 15 -17
15 -8 0 -8 -4 1 -15 6 -8 9 -23 6 -33 -6 -17 -1 -19 64 -18 42 1 72 6 74 12 3
7 24 11 55 9 28 -1 51 1 51 5 0 13 -23 18 -62 15 -34 -3 -69 17 -60 34 5 8
-10 10 -25 4z m40 -56 c-5 -8 -8 -7 -11 1 -3 9 -9 8 -25 -3 -27 -19 -37 -19
-37 1 0 9 6 14 13 11 8 -3 20 -1 27 3 17 11 42 1 33 -13z m-83 2 c0 -5 -4 -8
-9 -4 -5 3 -12 1 -16 -5 -3 -5 -11 -10 -18 -10 -6 0 -2 7 9 15 23 17 34 19 34
4z"/>
<path d="M1830 2820 c0 -7 -6 -10 -13 -7 -7 3 -13 -3 -13 -14 0 -13 4 -15 12
-8 8 6 16 5 25 -4 23 -22 89 -12 89 14 0 5 -10 7 -22 5 -13 -2 -29 1 -35 6 -7
6 -13 7 -13 3 0 -4 -7 -2 -15 5 -12 10 -15 10 -15 0z m45 -21 c6 -4 18 -5 28
-4 9 2 15 0 12 -5 -4 -6 -40 -6 -40 0 0 1 -8 3 -18 5 -11 2 -22 6 -25 9 -7 8
29 3 43 -5z"/>
<path d="M1371 2724 c-1 -6 -18 -11 -38 -12 -66 -3 -143 -21 -143 -33 0 -5 -5
-9 -11 -9 -5 0 -7 6 -3 13 6 9 5 9 -8 0 -8 -7 -19 -9 -23 -5 -5 4 -5 -2 -1
-12 5 -16 4 -17 -9 -6 -11 9 -18 10 -28 1 -8 -6 -18 -7 -22 -3 -5 4 -5 -2 -1
-12 6 -17 5 -17 -11 -5 -15 12 -16 12 -10 -3 3 -10 2 -20 -4 -23 -5 -4 -8 -1
-7 7 2 7 -4 11 -12 9 -8 -2 -21 -4 -29 -5 -8 -2 -20 -11 -27 -21 -10 -14 -14
-15 -14 -4 0 12 -2 12 -10 -1 -5 -8 -10 -10 -10 -5 0 6 -7 1 -16 -10 -8 -11
-16 -19 -17 -17 -3 5 -57 -17 -57 -23 0 -4 4 -4 9 0 5 3 12 1 16 -4 3 -6 -6
-8 -21 -5 -22 4 -25 2 -20 -12 5 -13 4 -14 -7 -6 -10 9 -20 5 -42 -16 -16 -15
-30 -25 -30 -22 -2 20 -227 -208 -271 -275 -74 -112 -154 -270 -162 -320 -1
-5 -6 -23 -12 -40 -5 -16 -12 -41 -14 -55 -3 -14 -11 -45 -17 -70 -13 -52 -18
-317 -7 -402 4 -32 16 -90 27 -130 133 -507 586 -883 1099 -915 l102 -6 0 107
0 106 -42 1 c-24 0 -54 2 -68 5 -130 21 -163 28 -215 46 -161 53 -283 128
-403 247 -150 148 -234 307 -287 546 -13 60 -15 304 -2 355 4 14 9 36 12 50
12 57 15 67 30 109 23 65 54 130 82 174 13 21 21 43 17 49 -5 7 -3 8 6 3 10
-6 12 -4 7 9 -4 9 -3 15 2 12 5 -3 21 11 37 32 15 20 32 40 37 43 5 4 6 13 2
20 -5 8 -5 11 0 7 11 -10 116 93 108 105 -4 6 -1 7 7 2 8 -5 17 -2 24 7 6 8
43 34 83 58 39 25 69 49 66 54 -4 5 -1 6 6 1 12 -7 79 21 92 38 3 5 9 8 13 8
3 -1 7 -1 9 0 1 0 13 2 26 3 14 2 27 8 28 13 2 6 13 9 23 6 12 -3 20 0 20 8 0
7 7 20 16 30 15 17 15 18 -5 16 -12 -1 -21 -7 -21 -14 0 -16 -16 -17 -26 -1
-4 6 -3 8 3 5 6 -4 13 -1 16 7 6 15 30 15 70 -2 33 -14 36 -25 3 -12 -15 5
-27 5 -35 -3 -18 -18 -13 -26 12 -21 27 6 66 14 81 17 6 1 14 9 18 17 5 12 7
12 7 -3 1 -14 5 -16 20 -8 10 6 28 8 40 6 15 -3 21 0 18 8 -2 7 -13 11 -23 10
-10 -1 -13 0 -6 3 6 3 12 10 12 15 0 6 -6 9 -12 8 -25 -3 -38 1 -38 12 0 8 5
8 15 -1 9 -8 15 -9 15 -2 0 6 -5 14 -10 17 -6 4 -9 14 -8 23 2 9 -8 22 -22 29
-16 8 -19 13 -9 13 9 0 22 -7 29 -15 19 -23 41 0 35 36 -3 15 -1 30 4 33 4 3
7 -6 5 -19 -1 -14 2 -25 6 -25 14 0 21 18 11 25 -6 3 -8 12 -5 20 4 9 -1 13
-15 12 -12 -1 -21 -5 -21 -9 0 -13 -28 -9 -33 5 -3 7 -6 7 -6 1z m-93 -53 c-7
-12 -17 -21 -22 -21 -4 0 -2 8 5 17 12 15 12 16 -4 10 -11 -4 -16 -3 -12 4 4
6 13 8 21 5 8 -3 14 0 14 6 0 6 3 9 6 6 3 -3 -1 -15 -8 -27z m84 -39 c10 -2
18 -8 18 -13 0 -5 -10 -4 -22 2 -22 9 -48 51 -48 73 0 6 8 -4 17 -23 9 -19 25
-36 35 -39z m-8 53 c3 -8 1 -15 -3 -15 -5 0 -11 7 -15 15 -3 8 -1 15 3 15 5 0
11 -7 15 -15z m30 0 c-4 -8 -8 -15 -10 -15 -2 0 -4 7 -4 15 0 8 4 15 10 15 5
0 7 -7 4 -15z m24 -11 c0 -15 -4 -22 -10 -16 -5 5 -6 16 -2 25 9 23 12 21 12
-9z m-178 6 c0 -5 -5 -10 -11 -10 -5 0 -7 5 -4 10 3 6 8 10 11 10 2 0 4 -4 4
-10z m79 -24 c9 -11 9 -16 0 -22 -8 -4 -9 -3 -5 4 4 7 2 12 -3 12 -6 0 -11 5
-11 10 0 14 5 13 19 -4z m-184 -6 c3 -5 1 -10 -4 -10 -6 0 -11 5 -11 10 0 6 2
10 4 10 3 0 8 -4 11 -10z m45 -5 c0 -8 -4 -15 -10 -15 -5 0 -7 7 -4 15 4 8 8
15 10 15 2 0 4 -7 4 -15z m40 5 c0 -5 -4 -10 -10 -10 -5 0 -10 5 -10 10 0 6 5
10 10 10 6 0 10 -4 10 -10z m39 -35 c0 -5 -4 -3 -9 5 -5 8 -9 22 -9 30 0 16
17 -16 18 -35z m41 15 c0 -5 -7 -7 -15 -4 -8 4 -15 8 -15 10 0 2 7 4 15 4 8 0
15 -4 15 -10z m-185 -10 c-3 -5 2 -10 11 -10 10 0 15 -3 11 -6 -10 -10 -39 5
-32 16 3 5 8 10 11 10 3 0 2 -4 -1 -10z m42 -22 c-4 -14 -2 -18 9 -14 8 3 14
1 14 -5 0 -24 -33 -2 -34 23 -1 14 2 24 7 21 5 -3 6 -14 4 -25z m85 9 c6 -11
5 -17 -2 -17 -5 0 -10 6 -10 13 0 7 -9 13 -20 13 -14 0 -19 -5 -15 -16 5 -11
3 -12 -6 -3 -6 6 -9 15 -6 20 10 15 48 8 59 -10z m113 1 c14 -6 25 -15 25 -20
0 -5 -4 -6 -10 -3 -5 3 -10 1 -10 -4 0 -6 -5 -11 -11 -11 -8 0 -7 6 2 16 12
15 11 16 -11 10 -20 -6 -22 -5 -10 4 12 10 11 11 -8 7 -12 -3 -20 -1 -16 4 7
12 18 11 49 -3z m-322 -12 c4 -11 1 -13 -10 -9 -12 5 -14 3 -8 -7 5 -9 4 -11
-4 -6 -9 6 -9 11 0 22 14 17 16 17 22 0z m66 -9 c0 -9 -2 -8 -6 1 -2 6 -10 9
-15 6 -7 -4 -8 -2 -4 5 9 13 26 5 25 -12z m180 7 c-12 -15 -11 -16 11 -10 21
6 22 5 7 -4 -9 -6 -21 -8 -27 -5 -11 7 -2 35 12 35 6 0 4 -7 -3 -16z m-228
-31 c-12 -20 -14 -14 -5 12 4 9 9 14 11 11 3 -2 0 -13 -6 -23z m147 -5 c-2
-15 -10 -22 -30 -22 -14 -1 -24 2 -21 7 3 5 14 7 24 4 14 -4 19 0 19 14 0 10
3 19 6 19 3 0 4 -10 2 -22z m135 9 c3 -8 2 -20 -3 -26 -5 -9 -7 -4 -7 13 0 29
2 32 10 13z m-353 -7 c0 -5 -5 -10 -11 -10 -5 0 -7 5 -4 10 3 6 8 10 11 10 2
0 4 -4 4 -10z m126 1 c-6 -9 -46 -22 -46 -15 0 3 10 9 23 14 29 11 29 11 23 1z
m32 -3 c-2 -6 -10 -13 -16 -14 -7 -1 -8 0 -2 3 5 2 8 9 4 14 -3 5 0 9 6 9 7 0
10 -5 8 -12z m119 6 c-3 -3 -12 -4 -19 -1 -8 3 -5 6 6 6 11 1 17 -2 13 -5z
m46 -15 c-8 -8 -13 -7 -18 2 -5 8 -4 10 3 5 7 -4 12 -2 12 5 0 7 3 9 7 6 4 -4
2 -12 -4 -18z m100 -12 c-3 -4 -11 0 -18 9 -11 16 -13 16 -24 -5 -7 -13 -15
-20 -18 -17 -4 3 2 15 11 25 15 16 22 18 36 8 10 -6 16 -15 13 -20z m-460 10
c3 -7 -3 -13 -14 -13 -13 0 -15 3 -7 13 6 7 12 13 13 13 2 0 5 -6 8 -13z m71
-9 c-5 -8 -1 -9 12 -5 18 7 18 6 -1 -8 -11 -9 -19 -17 -18 -18 1 -1 6 -13 11
-27 8 -22 7 -26 -9 -26 -11 0 -15 4 -10 11 5 5 8 24 6 40 -2 30 2 45 11 45 3
0 2 -5 -2 -12z m116 -18 c8 -5 11 -10 5 -10 -5 0 -17 5 -25 10 -8 5 -10 10 -5
10 6 0 17 -5 25 -10z m63 -13 c4 3 7 4 7 0 0 -18 -21 -14 -30 5 -10 21 -10 21
3 6 8 -10 17 -15 20 -11z m-349 -5 c3 -5 -1 -9 -9 -9 -8 0 -12 4 -9 9 3 4 7 8
9 8 2 0 6 -4 9 -8z m313 1 c-4 -3 1 -12 11 -20 15 -13 15 -13 -6 -3 -19 9 -23
30 -5 30 4 0 3 -3 0 -7z m-277 -6 c0 -2 -10 -12 -22 -23 l-23 -19 19 23 c18
21 26 27 26 19z m54 -26 c-2 -3 -12 3 -22 13 -16 17 -16 18 5 5 12 -7 20 -15
17 -18z m201 0 c-6 -5 -25 10 -25 20 0 5 6 4 14 -3 8 -7 12 -15 11 -17z m-35
15 c0 -3 -4 -8 -10 -11 -5 -3 -10 -1 -10 4 0 6 5 11 10 11 6 0 10 -2 10 -4z
m-123 -19 c0 -8 -6 -14 -14 -14 -9 0 -10 4 -2 14 6 7 12 13 14 13 1 0 2 -6 2
-13z m-157 -7 c0 -5 -5 -10 -11 -10 -5 0 -7 5 -4 10 3 6 8 10 11 10 2 0 4 -4
4 -10z m84 2 c3 -5 -1 -9 -9 -9 -8 0 -15 4 -15 9 0 4 4 8 9 8 6 0 12 -4 15 -8z
m-44 -21 c0 -6 -4 -12 -8 -15 -5 -3 -9 1 -9 9 0 8 4 15 9 15 4 0 8 -4 8 -9z
m200 -11 c0 -5 -2 -10 -4 -10 -3 0 -8 5 -11 10 -3 6 -1 10 4 10 6 0 11 -4 11
-10z m-235 -10 c3 -6 -1 -7 -9 -4 -18 7 -21 14 -7 14 6 0 13 -4 16 -10z m156
-3 c-6 -8 -8 -16 -5 -19 3 -3 1 -9 -4 -12 -6 -3 -9 0 -8 6 2 16 15 38 23 38 3
0 0 -6 -6 -13z m-277 -15 c3 -5 -1 -9 -9 -9 -8 0 -12 4 -9 9 3 4 7 8 9 8 2 0
6 -4 9 -8z m31 -1 c3 -5 2 -12 -3 -15 -5 -3 -9 1 -9 9 0 17 3 19 12 6z m90
-21 c-3 -5 -12 -10 -18 -10 -7 0 -6 4 3 10 19 12 23 12 15 0z m35 0 c0 -5 -5
-10 -11 -10 -5 0 -7 5 -4 10 3 6 8 10 11 10 2 0 4 -4 4 -10z m-83 -15 c0 -8
-4 -12 -9 -9 -5 3 -6 10 -3 15 9 13 12 11 12 -6z m133 -5 c8 -5 11 -10 5 -10
-5 0 -17 5 -25 10 -8 5 -10 10 -5 10 6 0 17 -5 25 -10z m-274 -76 c1 -9 0 -13
-4 -10 -3 4 -7 14 -8 22 -1 9 0 13 4 10 3 -4 7 -14 8 -22z m44 -44 c0 -5 -5
-10 -11 -10 -5 0 -7 5 -4 10 3 6 8 10 11 10 2 0 4 -4 4 -10z m73 -5 c4 -8 3
-16 -1 -19 -4 -3 -9 4 -9 15 -2 23 3 25 10 4z m-173 -189 c0 -2 -7 -7 -16 -10
-8 -3 -12 -2 -9 4 6 10 25 14 25 6z"/>
<path d="M1459 2714 c-7 -8 -6 -13 3 -16 11 -4 10 -8 0 -21 -14 -16 -9 -37 9
-37 6 0 7 4 4 10 -3 5 -1 18 5 27 8 15 10 12 6 -15 -3 -22 -1 -32 7 -29 7 2
12 16 11 30 0 29 10 36 20 12 3 -8 11 -15 18 -15 9 0 9 3 1 11 -6 6 -9 17 -7
24 4 8 -6 11 -30 10 -20 -2 -34 0 -32 4 4 6 42 7 80 2 5 -1 3 -7 -3 -15 -8 -9
-8 -16 -2 -20 5 -4 13 3 16 15 6 17 9 19 16 8 7 -12 9 -11 9 1 0 9 3 11 8 5
11 -16 45 -19 37 -3 -6 10 -5 11 6 1 7 -7 17 -13 22 -13 4 0 5 6 1 13 -5 8 -2
8 9 -2 9 -7 17 -9 17 -3 0 15 -19 20 -67 17 -24 -1 -43 1 -43 4 0 12 -111 7
-121 -5z"/>
<path d="M1713 2696 c10 -8 14 -17 8 -20 -5 -3 -11 0 -14 6 -2 7 -8 9 -13 5
-13 -13 18 -27 33 -15 7 6 13 7 13 2 0 -5 5 -2 11 6 9 13 10 13 6 0 -2 -8 -10
-14 -17 -12 -6 1 -10 -2 -8 -8 6 -20 23 -16 33 8 13 29 24 28 21 -3 -3 -21 -1
-23 18 -14 20 10 20 10 2 -5 -11 -9 -15 -16 -9 -16 7 0 14 4 18 10 3 5 12 7
19 4 8 -3 17 -1 20 5 8 12 36 3 36 -11 0 -5 -4 -7 -9 -3 -5 3 -12 1 -16 -4 -3
-6 -13 -8 -23 -5 -14 5 -15 4 -2 -5 11 -8 12 -11 2 -11 -8 0 -3 -9 10 -22 13
-13 17 -17 8 -10 -9 6 -20 12 -25 12 -4 0 4 -10 19 -21 32 -25 47 -18 22 10
-16 17 -16 19 -2 17 29 -4 37 -21 22 -41 -14 -19 -15 -19 -33 -2 -25 22 -37
22 -29 0 5 -15 4 -15 -9 1 -8 11 -15 14 -15 7 0 -7 -4 -10 -9 -7 -5 3 -15 -2
-22 -12 -13 -16 -13 -16 5 -2 13 9 17 10 12 2 -4 -8 -3 -11 5 -10 6 2 14 -4
16 -12 4 -12 3 -12 -5 -2 -7 11 -10 11 -15 -2 -4 -9 -14 -13 -26 -11 -11 2
-23 0 -25 -4 -4 -6 10 -10 52 -13 6 -1 12 -6 12 -12 0 -5 6 -1 14 10 12 16 17
17 28 6 11 -11 10 -12 -6 -6 -13 5 -17 3 -15 -5 3 -7 7 -11 10 -9 3 2 12 -2
20 -8 8 -5 21 -10 29 -9 8 0 23 -9 32 -20 10 -11 17 -16 18 -11 0 5 6 3 14 -3
11 -10 13 -6 11 23 -1 23 2 33 10 29 7 -2 12 -19 10 -38 -1 -19 2 -32 6 -30 4
3 9 2 12 -2 2 -5 2 -3 1 4 -2 6 3 17 11 23 11 9 13 5 12 -22 -1 -18 3 -33 8
-33 6 0 16 -4 23 -8 7 -5 12 -4 12 3 0 6 5 8 10 5 8 -5 7 -11 0 -20 -10 -12
-7 -13 12 -9 60 14 100 10 114 -10 8 -11 14 -16 14 -12 0 5 -7 17 -16 27 -10
11 -12 19 -5 24 6 3 11 2 11 -3 0 -4 9 -18 20 -30 12 -12 17 -22 12 -22 -5 0
-9 -11 -9 -25 0 -13 4 -22 9 -19 5 3 7 12 4 20 -3 8 1 17 9 20 12 5 9 10 -11
26 -24 20 -25 21 -7 41 10 11 13 17 7 14 -7 -4 -15 0 -18 9 -9 24 -7 29 6 16
15 -15 28 -15 28 -1 0 5 -4 8 -9 4 -5 -3 -12 -1 -15 4 -3 5 1 11 9 15 8 3 15
11 14 18 0 10 -2 10 -6 1 -2 -7 -9 -13 -15 -13 -6 0 -7 7 -4 16 3 9 2 12 -4 9
-6 -4 -9 -14 -8 -22 2 -9 -2 -18 -9 -20 -12 -4 -10 33 2 45 8 8 -16 32 -26 26
-13 -8 -49 -14 -49 -8 0 3 5 15 11 26 7 12 7 18 1 14 -6 -3 -13 0 -16 6 -3 7
-3 2 0 -12 5 -21 4 -23 -7 -12 -8 7 -15 17 -15 23 -1 5 -2 14 -3 20 0 5 -5 8
-10 4 -5 -3 -12 -1 -16 5 -4 6 -10 8 -15 5 -4 -3 -11 2 -14 11 -3 8 -10 13
-15 10 -5 -4 -12 0 -15 6 -3 7 -3 3 0 -10 5 -21 4 -22 -15 -11 -16 11 -18 16
-8 28 9 11 9 13 0 8 -7 -4 -16 0 -22 10 -6 10 -11 12 -11 6 0 -7 -5 -13 -11
-13 -5 0 -7 5 -3 12 4 6 3 8 -4 4 -6 -3 -14 -2 -17 4 -5 8 -12 7 -23 -2 -13
-11 -15 -10 -9 5 4 10 3 16 -2 12 -5 -3 -11 -1 -13 4 -1 6 -16 12 -33 15 -16
2 -31 5 -32 6 -2 2 -6 3 -10 4 -5 1 -13 4 -19 8 -6 4 -23 5 -37 2 -15 -2 -27
0 -27 6 0 5 -8 10 -17 10 -17 -1 -17 -2 0 -14z m117 -26 c3 -1 8 -2 13 -1 4 0
7 -3 7 -9 0 -13 -17 -13 -25 0 -4 6 -10 8 -15 5 -5 -3 -11 -1 -14 4 -5 8 15 8
34 1z m141 -58 c7 2 14 -3 15 -9 1 -7 2 -17 3 -23 0 -5 6 -9 12 -7 6 1 14 -5
16 -13 3 -10 2 -11 -4 -4 -4 6 -15 10 -24 9 -9 -2 -16 2 -15 9 0 6 -3 12 -8
13 -5 1 -12 7 -16 13 -5 9 -9 9 -14 1 -4 -6 -3 -11 2 -11 5 0 9 -7 9 -15 0 -9
-6 -14 -12 -11 -6 2 -12 -2 -12 -9 0 -10 5 -11 18 -4 25 13 38 11 14 -3 -11
-7 -29 -13 -40 -14 -11 -1 -19 -7 -17 -13 1 -6 -4 -14 -12 -17 -12 -5 -12 -9
-3 -19 9 -10 14 -9 24 4 12 14 12 14 6 -3 -4 -13 -2 -17 8 -14 8 3 13 12 11
21 -2 15 20 18 34 4 12 -11 23 3 17 21 -6 15 -5 15 10 3 9 -7 14 -17 11 -22
-3 -5 3 -6 13 -3 10 3 14 2 8 -3 -5 -4 -11 -17 -13 -28 -2 -13 0 -16 5 -8 10
14 27 5 31 -17 3 -12 1 -12 -9 -3 -10 10 -17 9 -33 -5 -20 -16 -20 -16 -7 1 8
10 9 17 3 17 -6 0 -9 8 -7 19 3 14 -3 19 -21 19 -17 0 -23 -5 -20 -14 3 -9 -1
-11 -12 -8 -15 5 -15 4 1 -9 9 -8 17 -17 17 -20 0 -3 -8 -4 -17 -2 -10 1 -17
8 -15 14 2 11 -1 12 -40 15 -13 1 -22 7 -21 13 4 17 -24 36 -39 27 -19 -12
-39 -14 -32 -3 3 5 9 7 14 4 16 -10 22 16 8 33 -12 15 -11 16 5 3 16 -13 22
-8 17 14 -1 5 8 1 19 -9 18 -17 21 -17 40 -2 12 9 21 19 20 24 -1 18 -32 40
-51 37 -16 -3 -18 -1 -8 10 6 7 20 12 30 10 11 -2 22 1 26 6 4 6 13 4 24 -6
10 -9 23 -15 31 -13z m-1 -32 c0 -5 -5 -10 -11 -10 -5 0 -7 5 -4 10 3 6 8 10
11 10 2 0 4 -4 4 -10z m101 -22 c3 7 10 6 23 -3 17 -13 15 -14 -23 -9 -38 4
-41 3 -37 -18 3 -13 5 -25 6 -28 2 -3 2 -9 1 -13 -1 -5 3 -6 8 -3 5 3 11 -1
15 -9 6 -17 -2 -19 -23 -6 -7 5 -11 13 -8 18 4 6 -7 19 -23 31 -28 21 -48 15
-35 -10 4 -7 -1 -4 -9 6 -11 13 -16 15 -16 6 0 -7 -3 -10 -7 -7 -3 4 -18 0
-32 -10 -20 -13 -23 -13 -14 -1 7 8 11 17 8 19 -2 3 5 6 15 7 44 4 49 6 54 19
4 11 10 11 26 3 17 -9 22 -7 32 15 l12 26 12 -22 c6 -12 13 -17 15 -11z m43
-37 c9 -8 13 -18 10 -23 -4 -7 -10 -4 -16 5 -5 10 -15 14 -25 10 -12 -5 -14
-3 -8 7 5 9 4 11 -4 6 -6 -4 -8 -12 -5 -18 4 -6 1 -9 -6 -6 -7 2 -14 11 -15
19 -3 19 46 19 69 0z m-21 -31 c-3 -11 -9 -20 -14 -20 -14 0 -11 28 4 33 6 3
13 6 14 6 0 1 -1 -8 -4 -19z m107 -21 c-6 -10 -8 -19 -5 -19 4 0 3 -6 -2 -12
-4 -7 -8 -26 -8 -42 0 -16 -5 -31 -10 -33 -6 -2 -10 13 -9 34 0 21 -4 42 -10
46 -7 5 -2 7 10 4 12 -2 21 1 21 7 -1 32 4 47 13 41 7 -4 7 -13 0 -26z m-60
10 c0 -5 -5 -9 -12 -9 -6 0 -8 -3 -5 -6 3 -4 2 -15 -4 -25 -7 -14 -6 -19 3
-20 11 0 11 -2 0 -6 -10 -4 -10 -8 0 -21 11 -13 11 -14 -2 -10 -8 3 -14 13
-14 22 1 9 -2 16 -7 16 -6 0 -5 9 1 21 7 11 9 23 6 27 -3 3 -6 -1 -6 -8 0 -7
-2 -11 -5 -8 -3 3 -3 12 0 19 6 16 45 23 45 8z m40 0 c0 -5 -9 -13 -20 -19
-14 -8 -18 -16 -12 -28 4 -9 7 -24 6 -32 -1 -8 -2 -21 -3 -27 0 -7 -5 -13 -10
-13 -10 0 -8 86 3 111 7 16 36 22 36 8z m-106 -54 c-10 -8 -26 -14 -34 -14
-12 0 -11 2 3 10 9 6 14 15 11 21 -4 7 -2 8 4 4 7 -4 12 -2 12 5 0 10 3 10 12
1 9 -9 8 -15 -8 -27z m153 -42 c-10 -10 -33 10 -34 30 l-2 22 20 -24 c11 -13
18 -26 16 -28z m-137 25 c0 -6 7 -19 15 -28 14 -16 14 -18 1 -23 -9 -4 -15 -3
-15 1 4 24 -4 31 -31 27 -17 -2 -28 0 -24 6 3 5 9 7 14 4 4 -3 10 2 14 10 6
18 26 20 26 3z"/>
<path d="M1915 2620 c-4 -6 -12 -7 -18 -3 -7 3 -3 -3 7 -15 11 -12 21 -22 24
-22 3 0 2 3 -1 7 -4 3 -2 12 4 19 6 8 6 14 0 18 -5 4 -12 2 -16 -4z"/>
<path d="M1846 2532 c-3 -6 1 -15 8 -21 8 -7 17 -8 20 -3 3 6 -1 15 -8 21 -8
7 -17 8 -20 3z"/>
<path d="M1562 2670 c-17 -28 -15 -48 3 -24 8 10 15 15 15 9 0 -5 5 -3 10 5 8
12 12 13 19 2 4 -8 12 -14 17 -15 5 -1 8 -5 7 -9 -2 -5 2 -8 8 -8 6 0 9 9 6
20 -3 11 -1 18 4 14 5 -3 6 3 2 12 -4 11 -8 13 -11 6 -2 -7 -9 -9 -15 -5 -20
12 -37 12 -37 0 0 -9 -2 -9 -8 0 -6 9 -11 7 -20 -7z"/>
<path d="M1668 2684 c-2 -5 -3 -19 -2 -31 0 -13 -1 -23 -5 -24 -44 -8 -73 -5
-81 10 -6 12 -8 8 -8 -17 1 -23 4 -30 12 -22 5 5 15 10 21 10 5 0 2 -5 -7 -11
-10 -5 -18 -14 -18 -20 0 -5 11 -2 25 7 14 9 23 19 20 23 -2 4 6 7 17 6 12 -1
24 -7 26 -13 2 -7 8 -10 13 -6 5 3 6 11 2 17 -12 19 -12 38 -1 31 7 -5 8 -2 3
6 -5 9 -4 11 4 6 8 -6 9 -12 2 -20 -6 -7 -8 -16 -4 -19 10 -11 23 -8 21 4 -2
6 3 13 10 15 7 1 8 0 2 -3 -5 -2 -7 -9 -4 -15 4 -6 10 -5 15 3 7 11 10 9 15
-8 4 -13 11 -23 16 -23 6 0 8 7 5 15 -4 8 -1 17 5 21 7 5 8 2 3 -6 -5 -7 -4
-11 1 -8 5 4 10 -5 10 -18 1 -13 -2 -24 -8 -24 -5 0 -6 4 -3 10 4 6 -1 7 -11
3 -11 -4 -13 -8 -6 -11 7 -2 12 -8 12 -14 0 -6 -6 -6 -15 2 -8 7 -15 9 -15 6
0 -4 -10 -2 -22 4 -22 11 -22 10 -4 -4 10 -9 23 -13 27 -10 13 8 10 -9 -5 -29
-11 -14 -15 -15 -19 -5 -4 11 -6 11 -6 0 -1 -8 -6 -10 -13 -5 -18 10 -38 15
-75 16 -18 0 -29 5 -26 9 3 5 -3 8 -13 6 -14 -2 -18 3 -17 17 1 14 -4 21 -18
22 -15 1 -18 -2 -11 -10 18 -24 22 -46 7 -40 -8 3 -12 10 -9 15 6 10 -80 98
-95 98 -4 0 -16 -9 -26 -20 -17 -19 -17 -21 0 -40 17 -19 35 -19 35 1 0 6 -4
8 -9 5 -5 -3 -14 0 -19 7 -8 10 -5 16 11 26 18 11 20 11 10 0 -18 -19 -16 -34
3 -19 21 18 48 -10 50 -51 1 -18 -1 -26 -5 -20 -6 9 -11 8 -20 -2 -9 -12 -7
-14 14 -14 14 0 25 3 25 8 0 5 5 9 11 9 5 0 8 -4 5 -9 -3 -4 15 -7 39 -6 25 1
45 -1 45 -5 0 -4 7 -7 15 -7 8 0 12 4 9 9 -3 4 0 8 5 8 6 0 11 -4 11 -8 0 -8
30 -14 68 -13 40 1 52 4 52 14 0 5 -8 6 -17 2 -20 -7 -13 0 31 33 15 12 31 20
35 18 4 -3 7 11 7 29 0 27 -3 32 -13 23 -16 -13 -46 8 -36 26 3 6 -2 4 -12 -5
-15 -15 -20 -15 -46 -2 -16 8 -33 21 -37 30 -5 9 -11 12 -14 7z m147 -81 c-2
-10 -4 -19 -4 -21 -1 -2 -6 0 -11 3 -8 5 -7 11 1 21 15 18 18 18 14 -3z m-290
-43 c3 -5 1 -10 -4 -10 -6 0 -11 5 -11 10 0 6 2 10 4 10 3 0 8 -4 11 -10z"/>
<path d="M1521 2643 c8 -10 9 -14 2 -10 -18 11 -27 -13 -10 -30 10 -10 17 -11
21 -4 4 6 0 11 -11 11 -15 0 -16 2 -3 10 11 7 18 3 26 -12 8 -14 13 -17 16 -8
2 7 -6 24 -18 37 -24 26 -43 32 -23 6z"/>
<path d="M1590 2640 c0 -5 5 -10 10 -10 6 0 10 5 10 10 0 6 -4 10 -10 10 -5 0
-10 -4 -10 -10z"/>
<path d="M1463 2592 c12 -13 13 -21 6 -32 -9 -12 -10 -12 -5 3 4 12 2 17 -6
15 -16 -6 -17 -30 -1 -35 19 -7 37 35 22 53 -6 8 -16 14 -22 14 -5 0 -3 -8 6
-18z"/>
<path d="M1637 2599 c-12 -7 -16 -17 -12 -32 5 -19 5 -20 -5 -4 -6 9 -16 15
-21 11 -19 -11 12 -33 42 -29 16 2 29 -1 29 -6 0 -6 5 -7 10 -4 8 5 7 11 -1
21 -8 10 -8 14 0 14 10 0 15 -13 12 -32 0 -4 8 -6 19 -5 25 2 25 9 0 25 -11 7
-20 16 -20 21 0 6 9 9 20 8 11 -1 20 -5 20 -10 0 -4 4 -6 10 -2 5 3 7 12 4 20
-6 15 -38 12 -59 -5 -10 -8 -16 -7 -22 4 -6 11 -13 12 -26 5z m28 -19 c3 -5 1
-10 -5 -10 -6 0 -8 -5 -4 -12 4 -7 3 -8 -5 -4 -6 4 -9 11 -6 16 3 4 -1 11 -7
13 -8 4 -7 6 4 6 9 1 20 -3 23 -9z"/>
<path d="M2500 2576 c14 -18 13 -19 -5 -12 -16 6 -18 5 -7 -5 8 -9 15 -10 22
-3 8 8 5 15 -7 25 -17 13 -17 13 -3 -5z"/>
<path d="M2461 2553 c8 -10 19 -21 24 -25 6 -5 5 -11 -3 -16 -8 -6 -2 -9 18
-9 21 0 27 3 18 9 -10 8 -10 11 0 15 6 2 12 9 12 15 0 6 -7 5 -16 -3 -14 -11
-19 -10 -34 9 -10 12 -21 22 -25 22 -4 0 -1 -8 6 -17z"/>
<path d="M2542 2520 c0 -14 2 -19 5 -12 2 6 2 18 0 25 -3 6 -5 1 -5 -13z"/>
<path d="M2460 2479 c0 -5 5 -7 10 -4 6 3 10 8 10 11 0 2 -4 4 -10 4 -5 0 -10
-5 -10 -11z"/>
<path d="M2478 2469 c-10 -10 -15 -19 -10 -19 10 1 42 26 42 34 0 11 -15 5
-32 -15z"/>
<path d="M2550 2482 c0 -13 30 -52 41 -52 5 0 0 9 -11 20 -12 12 -18 25 -15
30 4 6 1 10 -4 10 -6 0 -11 -3 -11 -8z"/>
<path d="M2580 2480 c0 -5 5 -10 11 -10 5 0 7 -5 3 -12 -4 -7 -3 -8 5 -4 9 6
9 11 0 22 -14 17 -19 18 -19 4z"/>
<path d="M1395 2472 c-3 -3 -67 -13 -92 -15 -7 0 -13 -4 -13 -9 0 -5 -9 -7
-19 -3 -11 3 -22 1 -26 -5 -3 -6 -10 -8 -14 -6 -12 8 -136 -42 -134 -53 2 -6
-3 -8 -10 -5 -12 4 -107 -42 -107 -52 0 -3 5 -2 12 2 7 4 8 3 4 -5 -4 -6 -11
-9 -16 -6 -17 11 -103 -53 -93 -68 3 -6 1 -7 -4 -4 -25 16 -230 -220 -219
-250 3 -8 1 -11 -4 -8 -9 6 -72 -117 -92 -180 -26 -84 -47 -219 -46 -311 0
-266 96 -496 287 -685 174 -173 383 -270 609 -286 l92 -6 0 106 0 107 -27 0
c-130 2 -308 60 -421 136 -204 139 -331 388 -330 644 1 58 7 129 15 158 8 29
11 58 7 64 -4 7 -3 8 4 4 7 -4 12 -1 12 6 0 19 43 121 58 136 7 8 10 18 7 23
-4 5 -2 9 2 9 5 0 16 12 25 28 10 15 35 47 57 71 22 25 37 50 34 55 -3 6 -3 8
2 4 12 -11 66 31 59 45 -4 7 -4 9 1 5 4 -4 30 9 59 28 28 18 56 34 63 34 6 0
15 4 18 10 3 6 -1 7 -9 4 -9 -3 -16 -2 -16 4 0 6 12 9 26 7 33 -3 77 19 80 40
1 9 6 20 10 23 4 4 4 -1 1 -10 -3 -10 -2 -20 3 -23 6 -4 10 -2 10 4 0 5 9 8
19 6 14 -3 19 2 18 16 -1 14 -7 18 -22 14 -18 -5 -18 -5 -2 5 18 12 41 5 32
-10 -3 -5 -1 -11 5 -15 5 -3 10 0 10 7 0 9 3 9 10 -2 8 -12 10 -12 11 5 0 11
3 14 6 8 2 -7 9 -13 15 -13 6 0 8 7 4 15 -3 8 1 21 9 29 8 7 11 17 7 21 -4 5
-1 5 6 1 6 -4 12 -3 12 3 0 5 -6 12 -12 14 -10 4 -10 6 0 6 23 2 25 -29 2 -47
-21 -17 -21 -19 -4 -32 16 -14 17 -13 11 4 -6 14 -4 16 5 9 16 -12 49 -13 42
-1 -6 10 10 11 20 1 12 -12 105 -11 109 1 3 6 -6 12 -19 12 -13 1 -22 -1 -20
-5 3 -4 -4 -7 -14 -7 -10 0 -16 4 -14 8 3 4 -1 9 -8 9 -7 1 -20 3 -28 4 -8 1
-23 3 -32 4 -10 0 -18 6 -18 11 0 7 7 7 21 0 24 -13 26 -12 31 14 4 25 -27 45
-44 28 -9 -9 -7 -12 10 -12 12 0 22 -4 22 -10 0 -12 -43 3 -48 18 -1 5 6 13
17 17 22 7 49 35 34 35 -6 0 -27 -12 -49 -26 -33 -22 -99 -46 -83 -29 4 3 17
8 29 10 13 2 33 13 44 24 25 24 72 33 69 14 -2 -7 2 -13 7 -13 6 0 10 6 10 13
0 19 -20 36 -35 30 -8 -2 -18 4 -24 15 -7 14 -7 19 4 19 7 0 11 -6 8 -12 -4
-12 42 -13 54 -1 3 3 14 1 24 -4 11 -6 20 -6 23 -1 9 14 66 7 77 -10 5 -8 9
-9 9 -2 0 12 17 12 38 0 7 -5 12 -3 12 5 0 10 2 10 9 -1 5 -7 13 -11 19 -7 6
3 13 2 17 -4 4 -6 11 -8 16 -5 5 4 9 2 9 -4 0 -5 -6 -11 -12 -14 -10 -3 -10
-7 -1 -19 7 -8 9 -18 5 -22 -4 -4 2 -15 13 -23 20 -16 20 -16 0 -9 l-20 6 20
-16 20 -17 -20 7 c-19 6 -19 5 -2 -8 16 -12 16 -14 2 -20 -9 -3 -13 -2 -10 4
3 5 -4 7 -15 5 -11 -2 -20 0 -20 6 0 5 5 9 10 9 12 0 9 22 -5 32 -5 4 -13 4
-18 1 -5 -3 -4 -9 3 -13 20 -12 -6 -50 -30 -45 -12 2 -18 0 -14 -6 3 -6 -5 -8
-20 -5 -14 3 -28 1 -31 -3 -2 -5 11 -7 30 -6 19 1 35 -3 35 -9 0 -6 4 -5 9 2
7 11 9 10 15 -3 3 -9 11 -13 16 -10 6 4 17 1 25 -5 8 -7 15 -9 15 -5 0 4 6 3
13 -2 6 -6 20 -9 29 -8 9 2 19 -4 22 -12 6 -13 9 -13 31 1 25 17 34 9 14 -11
-8 -8 -8 -13 0 -17 6 -4 11 0 11 8 0 8 4 17 9 20 5 4 8 -5 7 -19 -3 -20 0 -23
15 -15 23 13 29 12 29 0 0 -5 -8 -10 -17 -11 -14 0 -13 -2 5 -9 12 -5 22 -14
22 -20 0 -6 4 -9 9 -6 5 3 14 -1 21 -9 7 -8 17 -15 23 -15 6 0 2 6 -9 14 -18
14 -18 15 4 13 20 -1 26 -8 20 -22 -2 -2 7 -12 20 -20 12 -9 20 -20 17 -25 -3
-5 -1 -11 4 -14 5 -4 12 -2 16 4 4 6 11 8 16 5 5 -4 9 -1 9 5 0 7 -6 10 -14 7
-29 -11 -24 7 13 44 44 45 61 51 36 12 -10 -16 -14 -25 -10 -21 4 4 14 0 21
-10 8 -9 14 -12 14 -5 0 6 -5 15 -10 18 -8 5 -7 11 0 20 14 17 3 38 -16 31 -8
-3 -17 1 -20 9 -4 8 -10 13 -14 10 -4 -3 -10 1 -13 9 -3 8 1 17 9 20 20 8 24
8 23 -1 -3 -20 2 -33 12 -33 8 0 8 4 0 14 -10 11 -7 17 11 30 12 9 18 16 12
16 -5 0 -15 -5 -20 -10 -8 -8 -15 -6 -25 6 -12 16 -12 17 4 11 10 -4 16 -3 13
2 -3 5 -29 7 -57 5 -41 -2 -48 0 -40 10 6 8 8 22 4 31 -5 14 -3 16 7 10 8 -5
11 -4 6 3 -4 6 -14 8 -23 5 -12 -5 -14 -3 -8 7 5 9 0 7 -16 -3 -29 -21 -36
-21 -36 -2 0 9 6 14 13 11 18 -7 25 6 13 24 -6 10 -9 11 -9 3 0 -20 -20 -15
-20 5 -1 13 -4 12 -14 -7 -8 -15 -16 -20 -20 -12 -4 6 -3 11 2 11 5 0 9 7 9
16 0 14 -2 14 -15 -2 -13 -18 -14 -18 -7 4 6 21 4 23 -15 17 -17 -5 -20 -4
-15 5 5 8 4 11 -3 6 -5 -3 -12 -1 -14 5 -2 7 -17 13 -33 14 -17 1 -29 6 -28
12 1 6 -9 9 -22 7 -14 -1 -25 1 -25 6 0 4 -10 8 -22 8 -31 2 -51 6 -65 15 -8
5 -13 3 -13 -4 0 -8 -4 -8 -15 1 -10 9 -53 13 -126 14 -61 1 -112 0 -114 -2z
m-31 -23 c-4 -8 1 -9 17 -5 20 6 21 5 6 -4 -19 -12 -41 -4 -32 11 4 5 8 9 11
9 3 0 2 -5 -2 -11z m-20 -15 c10 -25 -1 -29 -14 -5 -6 12 -7 21 -1 21 5 0 12
-7 15 -16z m73 -16 c-6 -3 -14 -5 -18 -2 -4 2 -10 -3 -12 -11 -3 -11 -4 -10
-3 2 1 10 8 17 14 16 7 -2 12 5 12 15 0 14 2 15 10 2 6 -9 5 -17 -3 -22z
m-115 0 c-7 -7 -12 -8 -12 -2 0 6 3 14 7 17 3 4 9 5 12 2 2 -3 -1 -11 -7 -17z
m-77 2 c3 -5 1 -10 -4 -10 -6 0 -11 5 -11 10 0 6 2 10 4 10 3 0 8 -4 11 -10z
m555 -7 c0 5 6 5 13 0 6 -4 19 -8 28 -8 9 0 26 -8 37 -18 12 -11 26 -16 33
-11 8 5 10 3 5 -5 -5 -7 0 -21 10 -32 13 -15 20 -16 31 -7 11 9 13 8 11 -3 -2
-8 -12 -19 -23 -26 -11 -7 -14 -12 -7 -13 20 0 14 -16 -7 -17 -21 -2 -23 24
-2 37 9 5 10 10 2 14 -6 4 -16 4 -23 0 -6 -4 -9 -3 -5 2 3 5 -1 17 -8 27 -11
16 -13 16 -19 2 -3 -9 -11 -13 -16 -10 -13 8 -9 -17 5 -28 6 -5 2 -6 -8 -3
-13 4 -16 2 -11 -7 4 -6 4 -9 -1 -5 -13 12 -44 -11 -40 -30 2 -10 -1 -25 -6
-33 -7 -11 -9 -11 -9 0 0 7 -6 11 -14 8 -8 -3 -20 1 -27 9 -10 12 -14 12 -20
2 -7 -10 -9 -10 -9 0 0 6 0 15 0 19 -1 11 29 12 36 2 3 -5 12 -5 23 1 21 11
22 57 2 70 -8 4 -11 12 -7 18 3 6 2 13 -4 17 -6 4 -5 13 2 25 9 14 14 16 20 7
4 -7 8 -8 8 -4z m-533 -15 c-3 -8 -6 -5 -6 6 -1 11 2 17 5 13 3 -3 4 -12 1
-19z m38 -18 c-4 -6 -11 -8 -16 -4 -13 8 -7 -28 6 -39 6 -5 4 -7 -5 -4 -19 5
-20 53 -2 49 10 -2 12 4 7 20 -5 20 -4 21 5 5 6 -9 8 -22 5 -27z m-117 10 c-7
-10 -14 -17 -17 -15 -4 4 18 35 25 35 2 0 -1 -9 -8 -20z m167 10 c3 -5 12 -7
20 -3 8 3 15 -1 15 -8 0 -7 -3 -9 -7 -6 -3 4 -12 2 -19 -4 -16 -13 -34 -4 -34
17 0 16 16 19 25 4z m-107 -12 c-2 -6 -16 -12 -30 -12 -15 -1 -24 2 -21 7 3 5
14 7 24 4 11 -3 19 -1 19 4 0 5 3 9 6 9 3 0 4 -5 2 -12z m-143 -56 c-1 -9 1
-22 6 -27 5 -7 1 -11 -11 -11 -13 0 -16 5 -11 16 9 19 8 31 -4 50 -7 13 -6 13
7 2 9 -7 15 -21 13 -30z m61 26 c5 -7 3 -8 -6 -3 -10 6 -12 4 -6 -11 5 -14 4
-16 -5 -7 -6 6 -8 16 -5 22 9 14 13 14 22 -1z m86 -5 c-6 -3 -9 -10 -6 -15 4
-7 2 -8 -5 -4 -9 6 -9 11 0 22 6 8 15 12 18 8 3 -4 0 -9 -7 -11z m83 7 c4 -6
-1 -7 -12 -3 -16 6 -16 5 -4 -10 7 -9 9 -17 3 -17 -12 0 -23 26 -15 34 9 9 21
7 28 -4z m-155 -35 c-7 -8 -16 -15 -21 -15 -5 0 -1 8 9 18 20 22 31 19 12 -3z
m713 -2 c-5 -13 -2 -15 11 -10 11 4 15 3 11 -4 -4 -6 -14 -8 -22 -5 -8 3 -12
2 -9 -3 3 -5 -1 -14 -9 -21 -12 -10 -18 -10 -31 0 -12 11 -15 11 -12 0 2 -7
-2 -14 -8 -17 -6 -2 -11 3 -11 12 0 15 7 18 40 18 9 0 18 5 18 11 1 6 2 16 4
21 1 6 3 14 3 18 1 5 6 6 12 2 5 -3 6 -13 3 -22z m-671 3 c7 4 8 2 4 -5 -9
-13 -26 -5 -25 12 0 9 2 8 6 -1 2 -6 10 -9 15 -6z m142 3 c9 14 26 14 26 1 0
-5 -5 -9 -11 -7 -6 1 -14 -4 -17 -12 -3 -9 0 -11 8 -6 9 6 11 4 5 -5 -6 -10
-11 -9 -22 5 -7 11 -13 24 -13 29 0 6 4 5 9 -3 6 -9 11 -10 15 -2z m-284 -5
c0 -8 -19 -13 -24 -6 -3 5 1 9 9 9 8 0 15 -2 15 -3z m178 -8 c-10 -7 -14 -17
-10 -21 4 -5 1 -5 -7 0 -12 7 -11 10 4 22 24 17 36 17 13 -1z m59 -2 c-3 -3
-12 -4 -19 -1 -8 3 -5 6 6 6 11 1 17 -2 13 -5z m-252 -22 c-3 -3 -11 0 -18 7
-9 10 -8 11 6 5 10 -3 15 -9 12 -12z m139 9 c3 -5 0 -14 -8 -20 -10 -9 -15 -8
-19 3 -4 11 -1 13 10 9 11 -4 14 -2 9 5 -4 7 -5 12 -2 12 3 0 7 -4 10 -9z m82
-3 c4 -7 3 -8 -4 -4 -7 4 -12 2 -12 -5 0 -7 -3 -10 -6 -6 -6 5 3 27 11 27 2 0
7 -5 11 -12z m58 -4 c3 -8 2 -12 -4 -9 -6 3 -10 10 -10 16 0 14 7 11 14 -7z
m686 -28 c-14 -18 -16 -17 68 -25 6 0 12 -6 12 -12 0 -8 -4 -8 -14 0 -11 9
-13 6 -10 -16 1 -15 12 -34 24 -43 21 -15 20 -16 -14 -49 -33 -32 -34 -33 -45
-13 -7 13 -7 23 -2 27 5 3 12 -3 14 -12 3 -11 5 -9 5 7 -1 14 2 32 6 41 4 10
3 20 -3 23 -6 4 -8 13 -5 20 3 8 1 16 -3 19 -5 3 -9 -3 -10 -13 -1 -11 2 -22
8 -25 5 -4 9 -11 9 -17 0 -6 -9 -3 -19 6 -11 10 -17 23 -15 30 3 7 -2 19 -10
26 -9 7 -14 15 -12 19 2 3 -2 12 -10 19 -9 8 -14 9 -14 2 0 -6 -4 -9 -9 -6 -5
3 -16 -6 -25 -19 -10 -14 -22 -23 -28 -19 -6 4 -8 3 -5 -4 5 -6 0 -8 -13 -5
-22 6 -28 25 -7 22 25 -3 38 1 32 11 -4 6 -1 9 7 8 7 -2 13 4 12 12 -1 17 42
19 68 4 10 -6 9 -3 -1 12 -14 18 -14 18 4 2 15 -14 16 -20 5 -32z m-1004 22
c5 4 6 3 2 -2 -4 -5 -2 -16 4 -25 10 -12 7 -12 -8 2 -11 9 -23 15 -26 12 -2
-3 -5 2 -5 10 0 10 4 12 12 5 7 -5 16 -6 21 -2z m424 8 c0 -3 -4 -8 -10 -11
-5 -3 -10 -1 -10 4 0 6 5 11 10 11 6 0 10 -2 10 -4z m-486 -22 c3 -8 2 -12 -4
-9 -6 3 -10 10 -10 16 0 14 7 11 14 -7z m180 0 c3 -8 2 -12 -4 -9 -6 3 -10 10
-10 16 0 14 7 11 14 -7z m763 9 c-4 -3 -2 -12 5 -20 8 -11 7 -12 -6 -7 -10 4
-18 0 -22 -10 -4 -9 -15 -21 -25 -27 -15 -7 -17 -6 -13 5 4 11 0 14 -15 11
-12 -2 -21 0 -21 5 0 9 30 24 46 21 6 0 17 6 24 14 7 8 17 15 23 15 6 0 7 -3
4 -7z m-832 -23 c-3 -5 -12 -10 -18 -10 -7 0 -6 4 3 10 19 12 23 12 15 0z m45
5 c0 -1 -10 -10 -22 -21 -14 -12 -18 -13 -10 -3 6 9 10 18 7 21 -3 2 2 5 10 5
8 0 15 -1 15 -2z m85 -5 c-3 -5 -2 -10 4 -10 5 0 12 6 14 13 4 9 6 9 6 0 1 -7
-8 -17 -18 -23 -16 -8 -19 -7 -16 8 5 23 4 22 11 22 3 0 2 -4 -1 -10z m807
-17 c10 -11 18 -25 18 -30 -1 -4 -9 2 -19 14 -17 20 -20 21 -26 6 -5 -14 -8
-15 -14 -4 -6 8 -11 9 -15 3 -3 -6 3 -13 14 -17 11 -3 20 -11 20 -17 0 -5 -8
-7 -17 -4 -17 6 -17 5 0 -8 13 -10 15 -15 5 -19 -7 -3 -2 -4 12 -3 14 1 26 6
27 12 1 5 -4 8 -10 7 -7 -2 -13 9 -14 23 -1 26 -1 26 34 -9 19 -20 32 -41 29
-46 -8 -12 -46 -10 -46 2 0 5 -6 5 -13 -1 -16 -14 -42 1 -42 25 0 10 -7 19
-15 19 -8 1 -18 2 -22 3 -10 2 56 67 67 67 5 -1 17 -11 27 -23z m-845 -5 c-3
-8 -6 -5 -6 6 -1 11 2 17 5 13 3 -3 4 -12 1 -19z m-133 -20 c-3 -4 -9 -8 -15
-8 -5 0 -9 4 -9 8 0 5 7 9 15 9 8 0 12 -4 9 -9z m-166 -63 c-3 -3 -9 2 -12 12
-6 14 -5 15 5 6 7 -7 10 -15 7 -18z m18 -71 c1 -9 0 -13 -4 -10 -3 4 -7 14 -8
22 -1 9 0 13 4 10 3 -4 7 -14 8 -22z m64 -24 c0 -5 -2 -10 -4 -10 -3 0 -8 5
-11 10 -3 6 -1 10 4 10 6 0 11 -4 11 -10z m-55 -20 c-3 -5 -12 -10 -18 -10 -7
0 -6 4 3 10 19 12 23 12 15 0z"/>
<path d="M1755 2400 c-3 -5 -1 -11 5 -15 6 -4 8 -10 5 -15 -3 -4 2 -13 9 -20
8 -6 13 -20 11 -31 -2 -10 -3 -19 -1 -19 6 0 47 39 47 44 -3 24 0 30 8 18 7
-11 9 -11 14 2 7 17 -8 30 -35 32 -10 1 -19 2 -20 4 -9 7 -39 7 -43 0z m43
-10 c1 -2 11 -3 21 -4 11 0 23 -5 28 -10 4 -5 3 -7 -3 -3 -11 6 -46 -28 -38
-36 3 -3 -1 -8 -8 -13 -7 -4 -10 -3 -5 1 4 5 0 17 -10 27 -9 10 -13 18 -8 18
4 0 2 6 -4 14 -10 12 -9 14 6 11 10 -2 19 -4 21 -5z"/>
<path d="M1784 2376 c3 -25 12 -28 27 -9 7 10 9 15 5 11 -5 -4 -15 -3 -22 3
-9 7 -12 6 -10 -5z"/>
<path d="M1730 2268 c13 -16 47 -17 47 -2 0 9 -6 10 -17 4 -10 -6 -22 -5 -28
0 -9 7 -9 7 -2 -2z"/>
<path d="M1320 2390 c0 -5 5 -10 11 -10 5 0 7 5 4 10 -3 6 -8 10 -11 10 -2 0
-4 -4 -4 -10z"/>
<path d="M2066 2154 c-8 -22 -4 -25 11 -9 7 8 9 16 4 19 -5 3 -12 -1 -15 -10z"/>
<path d="M1855 2259 c-4 -6 -13 -8 -21 -5 -7 3 -16 0 -20 -7 -4 -7 -4 -9 1 -5
4 4 13 4 19 -2 8 -6 16 -2 24 11 7 10 10 19 8 19 -3 0 -8 -5 -11 -11z"/>
<path d="M2530 2467 c0 -5 9 -20 20 -34 11 -14 20 -22 20 -17 -1 12 -39 61
-40 51z"/>
<path d="M2513 2427 c0 -43 9 -54 27 -32 12 15 5 39 -10 30 -5 -3 -10 5 -13
17 -2 13 -4 6 -4 -15z m19 -29 c-7 -7 -12 -8 -12 -2 0 6 3 14 7 17 3 4 9 5 12
2 2 -3 -1 -11 -7 -17z"/>
<path d="M1490 2440 c-12 -7 -12 -10 3 -15 13 -6 14 -11 6 -27 -6 -11 -17 -17
-25 -14 -18 7 -18 -8 0 -24 8 -6 13 -17 10 -25 -3 -7 0 -16 7 -20 19 -12 79
-15 79 -4 0 6 -6 7 -12 3 -9 -5 -9 -2 1 9 7 9 9 17 3 17 -5 0 -15 -7 -22 -15
-7 -8 -17 -15 -22 -15 -6 0 0 9 13 20 27 22 14 27 -17 6 -19 -13 -20 -12 -18
12 2 42 3 43 23 33 15 -8 20 -7 25 5 8 22 7 31 -2 17 -5 -8 -13 -9 -22 -3 -12
8 -11 10 5 11 11 1 24 1 29 0 5 -1 6 5 2 14 -3 9 -2 13 4 10 6 -3 10 -1 10 4
0 14 -17 14 -25 1 -4 -6 -13 -7 -24 -1 -10 6 -23 6 -31 1z m35 -18 c-3 -3 -11
0 -18 7 -9 10 -8 11 6 5 10 -3 15 -9 12 -12z"/>
<path d="M1566 2412 c-16 -32 -16 -34 0 -28 9 3 23 1 30 -5 8 -7 14 -7 14 -1
0 14 -26 33 -34 25 -4 -4 -4 1 0 11 5 14 9 15 15 4 5 -7 9 -9 9 -4 0 5 6 3 14
-4 8 -6 12 -18 9 -26 -4 -10 0 -12 11 -8 12 5 13 11 5 27 -9 20 -9 20 4 5 19
-24 25 -23 23 5 -1 12 -7 21 -14 20 -35 -8 -55 -5 -48 5 3 5 -1 9 -8 9 -8 0
-21 -16 -30 -35z"/>
<path d="M2270 2439 c0 -6 11 -20 25 -31 14 -11 25 -25 25 -31 0 -6 -10 -2
-21 10 l-22 22 -17 -22 c-17 -20 -16 -22 19 -56 20 -19 40 -34 45 -33 5 2 6
-4 3 -13 -4 -8 -2 -15 4 -15 6 0 9 8 7 18 -2 9 -10 16 -16 15 -7 -2 -12 1 -12
5 0 5 -8 17 -17 28 -18 19 -29 54 -18 54 10 0 30 -24 33 -40 8 -37 39 -31 47
9 2 12 0 19 -6 16 -5 -4 -7 -10 -4 -15 3 -4 -2 -13 -11 -20 -13 -12 -14 -10
-10 13 2 15 8 31 11 37 4 6 2 9 -3 8 -5 -2 -21 10 -36 25 -14 15 -26 23 -26
16z"/>
<path d="M2613 2436 c4 -9 -2 -17 -14 -21 -11 -4 -18 -9 -16 -12 3 -3 13 0 23
5 19 11 28 42 12 42 -6 0 -8 -7 -5 -14z"/>
<path d="M1679 2420 c-1 -8 -2 -23 -2 -33 0 -11 -5 -16 -13 -13 -8 3 -23 -4
-34 -16 -25 -27 -27 -47 -2 -26 28 25 39 28 39 12 0 -8 -6 -13 -13 -10 -8 3
-11 0 -7 -10 4 -12 -2 -16 -23 -13 -4 0 -11 -5 -15 -13 -5 -7 -9 -8 -10 -3 0
6 -2 20 -3 32 -1 12 2 19 7 16 5 -3 4 4 -2 16 -13 23 -16 24 -46 11 -18 -7
-18 -9 10 -19 21 -9 26 -14 16 -20 -10 -6 -10 -10 -2 -16 7 -4 9 -16 5 -27 -4
-14 -2 -18 5 -14 12 8 48 17 69 18 7 1 11 7 8 14 -3 8 0 16 6 20 6 4 8 3 5 -2
-3 -6 -2 -16 2 -23 6 -10 10 -9 14 3 3 8 2 18 -4 22 -18 11 11 35 30 24 14 -7
17 -5 16 8 0 10 -4 23 -9 30 -4 6 -5 16 -1 21 3 5 1 12 -4 15 -5 4 -13 1 -17
-5 -4 -8 -9 -7 -15 2 -7 12 -9 11 -10 -1z m36 -10 c-4 -6 -1 -17 5 -25 7 -8
10 -15 6 -15 -16 0 -22 -3 -41 -18 -12 -11 -11 -6 5 12 16 19 19 27 9 24 -9
-4 -16 -1 -16 8 0 7 4 11 8 8 4 -2 10 0 14 6 3 5 8 10 11 10 3 0 2 -5 -1 -10z
m-125 -50 c0 -5 -2 -10 -4 -10 -3 0 -8 5 -11 10 -3 6 -1 10 4 10 6 0 11 -4 11
-10z"/>
<path d="M2456 2421 c-3 -5 6 -8 20 -8 19 0 22 2 13 8 -18 11 -26 11 -33 0z"/>
<path d="M2637 2413 c-4 -3 -7 -11 -7 -17 0 -6 5 -5 12 2 6 6 9 14 7 17 -3 3
-9 2 -12 -2z"/>
<path d="M2468 2393 c6 -2 10 -9 7 -14 -4 -5 0 -6 7 -4 9 4 14 -2 14 -15 0
-12 -5 -19 -13 -16 -7 3 -15 1 -17 -3 -3 -5 4 -8 16 -7 15 1 22 8 23 24 2 21
-21 43 -42 41 -4 0 -2 -3 5 -6z"/>
<path d="M2555 2389 c-4 -6 -5 -12 -2 -15 2 -3 7 2 10 11 7 17 1 20 -8 4z"/>
<path d="M2437 2376 c-4 -10 -3 -15 3 -11 6 3 10 1 10 -6 0 -7 3 -10 6 -6 3 3
2 13 -4 22 -8 16 -9 16 -15 1z"/>
<path d="M2565 2364 c-21 -32 -19 -45 3 -14 9 14 25 26 35 28 15 3 16 0 5 -17
-6 -11 -17 -19 -22 -18 -6 1 -11 -9 -11 -23 0 -21 4 -24 24 -22 16 3 21 0 16
-9 -5 -8 -4 -10 4 -5 17 11 2 29 -20 23 -14 -4 -19 0 -19 15 0 10 4 17 9 14 5
-3 16 5 25 19 9 14 15 26 14 26 -21 10 -50 2 -63 -17z"/>
<path d="M2670 2380 c0 -5 5 -10 11 -10 5 0 7 5 4 10 -3 6 -8 10 -11 10 -2 0
-4 -4 -4 -10z"/>
<path d="M1500 2360 c0 -5 7 -10 15 -10 8 0 15 5 15 10 0 6 -7 10 -15 10 -8 0
-15 -4 -15 -10z"/>
<path d="M2520 2360 c0 -5 5 -10 10 -10 6 0 10 5 10 10 0 6 -4 10 -10 10 -5 0
-10 -4 -10 -10z"/>
<path d="M2640 2360 c0 -5 5 -10 10 -10 6 0 10 5 10 10 0 6 -4 10 -10 10 -5 0
-10 -4 -10 -10z"/>
<path d="M2377 2339 c7 -7 15 -10 18 -7 3 3 -2 9 -12 12 -14 6 -15 5 -6 -5z"/>
<path d="M2670 2340 c0 -5 5 -10 10 -10 6 0 10 5 10 10 0 6 -4 10 -10 10 -5 0
-10 -4 -10 -10z"/>
<path d="M2132 2318 c25 -21 29 -22 22 -5 -2 7 4 13 16 14 11 1 20 -4 20 -13
0 -8 0 -17 1 -21 0 -4 -4 -9 -10 -11 -7 -2 -9 4 -5 15 5 14 4 15 -4 3 -12 -17
-5 -33 12 -27 6 3 27 -11 46 -29 39 -39 50 -42 57 -14 3 11 9 20 14 20 5 0 9
5 9 11 0 6 -13 1 -29 -10 l-28 -20 -28 29 c-16 17 -23 30 -17 30 7 0 12 5 12
11 0 5 -4 8 -9 4 -5 -3 -11 3 -13 12 -2 13 -14 18 -45 19 -42 1 -42 1 -21 -18z
m148 -88 c0 -5 -5 -10 -11 -10 -5 0 -7 5 -4 10 3 6 8 10 11 10 2 0 4 -4 4 -10z"/>
<path d="M2349 2319 c-11 -7 -11 -9 -1 -9 8 0 10 -5 6 -12 -5 -8 -1 -8 12 2
10 8 20 15 22 16 2 1 -3 4 -11 7 -8 3 -20 1 -28 -4z"/>
<path d="M2518 2323 c7 -3 16 -2 19 1 4 3 -2 6 -13 5 -11 0 -14 -3 -6 -6z"/>
<path d="M2612 2326 c2 -1 12 -8 22 -16 11 -8 17 -10 13 -3 -4 6 -1 13 5 16 7
2 0 4 -15 4 -15 0 -27 0 -25 -1z"/>
<path d="M2670 2310 c0 -5 5 -10 11 -10 5 0 7 5 4 10 -3 6 -8 10 -11 10 -2 0
-4 -4 -4 -10z"/>
<path d="M2260 2300 c0 -5 7 -7 15 -4 8 4 15 8 15 10 0 2 -7 4 -15 4 -8 0 -15
-4 -15 -10z"/>
<path d="M2510 2301 c8 -5 17 -8 21 -5 4 2 10 -4 13 -13 4 -15 5 -15 3 1 -1
12 -11 20 -27 23 -18 2 -21 1 -10 -6z"/>
<path d="M2390 2290 c0 -5 7 -7 15 -4 8 4 15 8 15 10 0 2 -7 4 -15 4 -8 0 -15
-4 -15 -10z"/>
<path d="M2040 2280 c0 -5 5 -10 10 -10 6 0 10 5 10 10 0 6 -4 10 -10 10 -5 0
-10 -4 -10 -10z"/>
<path d="M2070 2280 c0 -5 5 -10 11 -10 5 0 7 5 4 10 -3 6 -8 10 -11 10 -2 0
-4 -4 -4 -10z"/>
<path d="M2266 2275 c-11 -8 -18 -17 -15 -19 2 -3 15 4 29 14 14 11 21 20 15
19 -5 0 -19 -6 -29 -14z"/>
<path d="M2360 2280 c-9 -6 -10 -10 -3 -10 6 0 15 5 18 10 8 12 4 12 -15 0z"/>
<path d="M2420 2280 c-12 -7 -10 -9 7 -7 12 0 19 5 17 9 -6 10 -6 10 -24 -2z"/>
<path d="M2570 2270 c6 -11 13 -20 16 -20 2 0 0 9 -6 20 -6 11 -13 20 -16 20
-2 0 0 -9 6 -20z"/>
<path d="M2640 2280 c-8 -5 -10 -10 -5 -10 6 0 17 5 25 10 8 5 11 10 5 10 -5
0 -17 -5 -25 -10z"/>
<path d="M2670 2269 c-17 -13 -18 -17 -5 -10 33 17 51 31 40 31 -5 0 -21 -10
-35 -21z"/>
<path d="M2370 2249 c-7 -11 -9 -23 -6 -27 3 -3 6 0 6 7 0 7 4 9 10 6 6 -4 7
1 3 11 -5 14 -3 15 15 5 12 -7 22 -9 22 -7 0 3 -9 10 -20 16 -15 8 -21 6 -30
-11z"/>
<path d="M2617 2259 c7 -7 15 -10 18 -7 3 3 -2 9 -12 12 -14 6 -15 5 -6 -5z"/>
<path d="M2695 2259 c-5 -8 -4 -10 3 -5 7 4 12 2 12 -3 0 -13 27 -14 35 -2 3
5 0 13 -6 17 -8 4 -9 3 -5 -4 9 -15 -6 -16 -21 -1 -8 8 -13 7 -18 -2z"/>
<path d="M2339 2248 c-1 -7 -1 -16 0 -20 2 -12 -17 -10 -22 2 -3 6 -4 5 -3 -2
4 -22 29 -14 32 10 2 12 2 22 -1 22 -3 0 -6 -6 -6 -12z"/>
<path d="M2431 2250 c0 -8 4 -22 9 -30 12 -18 12 -2 0 25 -6 13 -9 15 -9 5z"/>
<path d="M2570 2230 c6 -11 13 -20 16 -20 2 0 0 9 -6 20 -6 11 -13 20 -16 20
-2 0 0 -9 6 -20z"/>
<path d="M2595 2241 c-6 -11 13 -26 22 -17 4 3 1 6 -6 6 -7 0 -9 5 -6 10 3 6
4 10 1 10 -3 0 -7 -4 -11 -9z"/>
<path d="M2665 2239 c-4 -6 -5 -12 -2 -15 2 -3 7 2 10 11 7 17 1 20 -8 4z"/>
<path d="M2636 2227 c3 -10 9 -15 12 -12 3 3 0 11 -7 18 -10 9 -11 8 -5 -6z"/>
<path d="M1426 2223 c-1 -1 -22 -5 -46 -8 -25 -3 -47 -11 -51 -17 -4 -7 -8 -6
-12 3 -4 10 -6 9 -6 -3 -1 -9 -5 -20 -11 -23 -6 -3 -7 1 -4 9 5 13 -4 12 -54
-6 -34 -12 -58 -26 -55 -32 4 -5 -1 -7 -10 -3 -10 4 -17 1 -17 -5 0 -6 -3 -9
-6 -5 -9 9 -95 -53 -89 -64 3 -5 0 -6 -8 -3 -8 3 -20 -3 -28 -12 -9 -12 -10
-15 -1 -10 18 11 15 1 -5 -15 -11 -10 -14 -10 -9 -1 4 6 3 12 -2 12 -12 0 -68
-72 -64 -83 1 -5 -2 -6 -7 -3 -17 11 -107 -136 -95 -156 4 -7 3 -8 -4 -4 -11
7 -16 -7 -15 -41 1 -7 -3 -10 -8 -8 -8 6 -22 -38 -39 -121 -14 -73 -6 -249 15
-319 86 -295 343 -509 638 -532 l77 -6 0 104 0 105 -82 12 c-269 40 -454 263
-443 532 3 89 4 93 24 152 7 21 9 43 5 50 -4 7 -4 10 1 6 4 -4 26 21 48 55 22
34 48 68 59 76 11 7 17 19 14 27 -3 7 0 16 6 20 7 4 8 3 4 -4 -13 -22 13 -12
28 10 9 12 16 19 16 14 0 -5 8 -2 18 7 10 9 43 28 75 41 57 26 77 48 35 40
-21 -4 -22 -4 -3 5 15 6 23 5 33 -7 11 -14 13 -14 27 4 9 12 14 14 15 6 0 -9
7 -11 23 -6 12 4 33 7 47 8 30 1 43 16 28 33 -8 9 -7 13 2 13 19 0 3 13 -20
17 -19 3 -28 -11 -12 -20 4 -2 1 -2 -6 0 -8 1 -12 -3 -9 -9 2 -7 13 -12 23
-10 15 2 16 1 4 -7 -9 -7 -19 -6 -27 1 -9 8 -13 7 -13 -2 0 -8 -3 -11 -6 -8
-3 4 1 19 10 36 13 26 20 29 58 28 30 -1 43 -6 43 -16 0 -8 -8 -14 -17 -14
-13 1 -17 -4 -14 -20 4 -25 46 -33 46 -8 0 12 -3 12 -15 2 -9 -7 -15 -8 -15
-2 0 14 24 22 40 12 16 -10 30 -4 30 11 0 6 -4 8 -8 5 -13 -8 -33 9 -35 31 -1
17 -8 20 -49 18 -37 -1 -53 -7 -72 -28 -13 -14 -21 -29 -18 -32 4 -3 -2 -3
-12 1 -15 6 -17 4 -11 -6 6 -9 4 -11 -5 -5 -10 6 -9 11 6 21 28 19 64 57 64
68 0 5 -8 2 -18 -7 -27 -25 -36 -21 -10 5 19 19 22 20 33 5 17 -24 28 -21 15
3 -6 11 -8 25 -5 31 4 5 8 20 9 33 2 17 -2 22 -21 22 -13 0 -25 -1 -27 -3z
m-40 -25 c4 -6 3 -8 -3 -5 -6 4 -14 0 -17 -9 -3 -9 -11 -12 -18 -8 -8 5 -9 2
-5 -10 4 -10 3 -15 -3 -11 -6 3 -10 1 -10 -4 0 -6 -4 -11 -8 -11 -5 0 -9 7 -9
15 0 8 4 12 8 10 4 -3 10 2 13 11 3 8 10 13 15 10 5 -3 11 1 15 9 7 18 12 19
22 3z m28 -12 c-3 -9 -12 -16 -20 -16 -8 0 -14 -4 -14 -10 0 -20 28 -9 54 22
14 17 26 27 26 21 0 -5 -13 -24 -29 -41 -26 -27 -32 -29 -48 -17 -17 13 -17
15 7 37 28 27 33 28 24 4z m-124 -36 c0 -5 -7 -6 -17 -3 -12 5 -14 3 -8 -7 5
-9 4 -11 -4 -6 -6 4 -9 12 -6 17 8 12 35 12 35 -1z m-40 -25 c14 -19 14 -19
-2 -6 -10 7 -18 18 -18 24 0 6 1 8 3 6 1 -2 9 -13 17 -24z m120 7 c0 -15 -11
-21 -27 -15 -12 5 -12 7 -1 14 17 11 28 11 28 1z m-186 -18 c3 -8 2 -12 -4 -9
-6 3 -10 10 -10 16 0 14 7 11 14 -7z m101 -15 c-4 -5 -12 -9 -18 -8 -9 0 -8 2
1 6 6 2 9 10 6 15 -4 7 -2 8 5 4 6 -4 9 -12 6 -17z m-150 1 c3 -6 -1 -7 -9 -4
-18 7 -21 14 -7 14 6 0 13 -4 16 -10z m207 -9 c-2 -8 3 -11 13 -8 8 4 15 2 15
-4 0 -6 -7 -9 -16 -7 -8 2 -15 8 -14 13 1 6 -9 13 -22 17 -22 7 -22 7 2 5 15
-2 24 -8 22 -16z m58 9 c13 -8 13 -10 -2 -10 -9 0 -20 5 -23 10 -8 13 5 13 25
0z m-152 -26 c1 -1 -5 -4 -15 -6 -13 -4 -19 0 -19 13 0 14 3 16 16 6 8 -6 16
-12 18 -13z m62 6 c0 -5 -2 -10 -4 -10 -3 0 -8 5 -11 10 -3 6 -1 10 4 10 6 0
11 -4 11 -10z m-20 -20 c0 -5 -5 -10 -11 -10 -5 0 -7 5 -4 10 3 6 8 10 11 10
2 0 4 -4 4 -10z m-144 -15 c-1 -8 -5 -17 -8 -21 -5 -4 -4 16 1 34 3 9 9 -1 7
-13z m167 2 c3 -8 -1 -14 -8 -14 -7 0 -11 6 -8 14 3 7 6 13 8 13 2 0 5 -6 8
-13z m-103 -6 c0 -5 -8 -15 -17 -22 -16 -12 -17 -12 -6 2 7 9 10 19 6 22 -3 4
-1 7 5 7 7 0 12 -4 12 -9z m155 -1 c3 -5 2 -10 -4 -10 -5 0 -13 5 -16 10 -3 6
-2 10 4 10 5 0 13 -4 16 -10z m-85 -4 c0 -2 -7 -7 -16 -10 -8 -3 -12 -2 -9 4
6 10 25 14 25 6z m-60 -31 c-7 -8 -17 -15 -23 -15 -6 0 -2 7 9 15 25 19 30 19
14 0z m84 -14 c-2 -3 -12 3 -22 13 -16 17 -16 18 5 5 12 -7 20 -15 17 -18z
m-150 11 c3 -5 -1 -9 -9 -9 -8 0 -12 4 -9 9 3 4 7 8 9 8 2 0 6 -4 9 -8z m93 1
c-4 -3 -3 -11 3 -17 6 -8 2 -12 -13 -13 -17 -2 -19 0 -7 7 8 5 11 10 7 10 -9
0 1 20 10 20 4 0 3 -3 0 -7z m-177 -103 c0 -5 -5 -10 -11 -10 -5 0 -7 5 -4 10
3 6 8 10 11 10 2 0 4 -4 4 -10z m15 -40 c3 -5 1 -10 -4 -10 -6 0 -11 5 -11 10
0 6 2 10 4 10 3 0 8 -4 11 -10z"/>
<path d="M1489 2218 c-1 -7 -1 -17 0 -22 1 -4 -3 -14 -9 -21 -8 -10 -8 -19 2
-34 20 -32 25 -26 25 34 0 30 -4 55 -9 55 -4 0 -9 -6 -9 -12z"/>
<path d="M1516 2213 c-3 -7 0 -15 6 -19 7 -4 6 -9 -3 -15 -12 -7 -12 -9 0 -9
11 0 11 -3 1 -15 -9 -11 -9 -15 -1 -15 7 0 10 -4 7 -9 -3 -5 2 -8 12 -7 9 0
16 -5 15 -11 -2 -7 2 -13 8 -13 5 0 8 -4 4 -9 -3 -5 0 -13 6 -17 8 -4 9 -3 5
4 -4 7 -2 12 5 12 8 0 8 4 -1 15 -7 8 -9 15 -4 15 5 1 -4 7 -21 15 -17 9 -21
13 -8 9 17 -4 21 -1 18 13 -2 10 -4 20 -4 23 -1 3 -5 -1 -10 -9 -6 -9 -11 -10
-15 -2 -4 6 -3 11 3 11 6 0 8 7 5 15 -4 8 -1 15 6 15 6 0 8 -4 5 -10 -3 -5 -1
-10 5 -10 7 0 10 7 6 18 -6 16 -5 16 7 0 8 -10 17 -15 20 -11 9 9 9 23 0 22
-5 -1 -10 0 -13 1 -17 8 -60 4 -64 -7z"/>
<path d="M2395 2219 c-18 -9 -18 -9 3 -5 16 3 22 -1 22 -14 0 -13 -6 -17 -19
-13 -22 6 -37 -12 -20 -23 8 -5 9 -3 4 5 -5 9 0 12 16 9 17 -2 25 3 27 16 5
25 -9 36 -33 25z"/>
<path d="M1600 2194 c-10 -17 -16 -21 -21 -12 -5 8 -8 5 -6 -10 0 -12 5 -22 9
-22 4 0 5 -9 3 -20 -2 -12 4 -24 15 -30 26 -14 35 -13 21 3 -6 8 -8 17 -4 20
3 4 -2 7 -13 7 -14 0 -16 2 -5 9 11 7 11 9 0 14 -9 4 -10 6 -2 6 7 1 10 8 7
19 -5 14 -4 14 4 2 6 -8 8 -18 6 -22 -10 -16 9 -8 22 10 13 16 14 16 8 -3 -5
-16 -4 -17 5 -5 6 8 11 11 11 7 0 -4 10 -3 21 4 17 9 20 8 14 -2 -6 -8 -4 -10
5 -4 9 5 11 4 6 -3 -5 -8 -1 -10 11 -6 13 4 15 3 5 -4 -8 -5 -13 -12 -13 -16
2 -16 0 -18 -14 -6 -9 7 -18 10 -21 7 -3 -3 6 -13 20 -22 15 -10 23 -22 19
-31 -5 -15 -17 -11 -19 7 -1 5 -2 12 -3 15 0 4 -8 1 -16 -6 -8 -6 -19 -9 -24
-6 -5 4 -14 -1 -19 -10 -6 -11 -11 -13 -16 -5 -11 17 -29 13 -22 -5 8 -20 -12
-46 -28 -37 -8 4 -8 3 0 -6 6 -7 24 -14 40 -16 16 -2 30 -4 32 -6 1 -1 10 -2
20 -3 11 0 26 -7 35 -15 10 -7 17 -10 17 -6 0 5 9 0 20 -10 11 -10 20 -14 20
-10 0 4 9 0 20 -10 11 -10 20 -14 20 -10 0 5 6 0 14 -10 13 -18 13 -17 11 9
-2 17 1 26 8 23 7 -2 11 -16 11 -31 -1 -19 2 -24 9 -17 18 18 31 12 16 -6 -11
-15 -10 -14 9 1 12 11 22 14 22 8 0 -6 -9 -17 -20 -25 -11 -8 -17 -17 -13 -20
3 -4 12 2 20 12 13 19 53 25 53 9 0 -4 5 -8 11 -8 8 0 8 5 -1 15 -7 8 -16 12
-21 9 -5 -3 -17 8 -27 25 -9 17 -21 30 -27 30 -23 -3 -36 1 -31 9 3 5 26 8 52
7 29 -2 41 1 33 6 -9 5 -10 9 -3 9 13 0 14 74 1 87 -8 8 -12 9 -39 12 -10 1
-10 3 0 10 11 7 11 9 -1 14 -11 4 -15 0 -12 -13 3 -13 -2 -18 -15 -17 -11 1
-22 7 -24 14 -3 8 1 10 11 6 11 -4 14 -2 11 8 -3 8 -13 13 -22 11 -9 -2 -15 3
-14 10 2 7 -4 13 -12 13 -8 0 -19 6 -25 13 -10 13 -44 23 -82 25 -13 1 -23 5
-23 9 0 5 -11 1 -24 -7 -18 -12 -26 -13 -32 -4 -5 8 -3 9 6 4 9 -6 11 -4 5 5
-5 8 -4 11 3 6 6 -3 13 -3 16 2 2 4 -3 8 -13 9 -10 1 -24 -9 -31 -23z m70 -14
c0 -5 -2 -10 -4 -10 -3 0 -8 5 -11 10 -3 6 -1 10 4 10 6 0 11 -4 11 -10z m72
-5 c12 -3 26 -11 30 -19 5 -9 16 -13 26 -9 18 7 17 5 -12 -17 -16 -12 -18 -12
-11 -1 6 10 4 12 -5 6 -9 -6 -11 -4 -5 5 6 9 4 11 -5 5 -9 -6 -11 -4 -5 5 6 9
4 11 -4 6 -9 -6 -8 -13 5 -27 18 -19 6 -27 -12 -9 -7 7 -11 6 -11 -4 0 -8 4
-13 8 -11 9 6 6 -22 -4 -31 -11 -11 -8 -26 3 -19 12 8 9 -17 -4 -26 -4 -4 -3
-10 3 -13 6 -4 11 -3 11 1 0 5 9 9 19 10 21 2 23 -24 2 -37 -18 -10 2 -22 24
-14 13 6 14 9 3 16 -10 7 -9 8 5 4 9 -3 17 -2 17 3 0 5 10 8 23 7 18 -1 21 4
19 23 -2 20 0 22 13 11 9 -7 14 -19 11 -27 -3 -8 -1 -11 4 -8 6 3 8 20 5 36
-4 19 -2 28 5 24 6 -4 7 1 3 11 -4 11 -2 15 4 11 12 -7 11 -72 0 -84 -4 -3
-20 -7 -35 -8 -33 -2 -75 -23 -67 -35 8 -13 -21 -6 -39 9 -9 7 -16 10 -16 6 0
-5 -9 0 -20 10 -11 10 -20 15 -20 10 0 -4 -7 -1 -17 6 -9 8 -24 15 -35 15 -10
1 -20 3 -23 4 -7 3 -23 7 -36 9 -8 1 -8 5 1 16 6 8 8 20 4 27 -6 10 -5 10 8 0
14 -11 18 -10 27 5 7 12 10 14 11 4 0 -11 5 -9 22 5 12 10 18 14 15 8 -8 -15
15 -35 29 -26 11 8 12 27 2 37 -4 4 -1 17 7 29 14 19 13 22 -7 39 -13 10 -17
16 -11 12 7 -3 23 -8 35 -10z m76 -71 c7 -14 17 -22 22 -19 18 11 10 -11 -10
-30 -22 -20 -28 -8 -7 15 10 12 9 12 -4 2 -12 -9 -16 -9 -16 3 0 8 5 11 10 8
6 -3 7 -1 3 6 -4 6 -11 9 -16 6 -4 -3 -10 1 -12 7 -3 8 -10 4 -17 -11 -7 -13
-9 -21 -3 -17 5 3 17 -5 26 -19 18 -28 10 -35 -9 -8 -9 13 -14 13 -20 3 -6 -9
-4 -11 6 -5 8 5 11 5 7 1 -13 -15 -23 -6 -23 21 -1 16 8 35 20 45 27 23 30 22
43 -8z m68 -38 c0 -16 -5 -21 -11 -16 -6 5 -17 5 -24 1 -9 -6 -10 -11 -2 -15
6 -4 11 -13 11 -19 0 -7 -4 -6 -10 3 -5 8 -10 10 -10 5 0 -6 -11 -12 -24 -13
-23 -2 -21 2 17 38 49 46 55 48 53 16z m-6 -124 c0 -4 -9 -8 -20 -8 -22 0 -27
12 -7 19 14 5 27 -1 27 -11z"/>
<path d="M1666 2073 c-4 -5 -11 -8 -14 -9 -18 -2 -42 -17 -42 -26 0 -5 4 -7 9
-3 5 3 12 1 16 -4 3 -5 14 -8 25 -6 10 2 24 -3 30 -11 7 -7 17 -11 22 -8 6 4
14 1 18 -6 6 -10 12 -10 26 0 12 7 13 10 3 7 -8 -3 -26 4 -40 14 -17 14 -19
17 -5 13 13 -5 17 -3 15 5 -3 7 -7 11 -11 9 -3 -2 -15 5 -25 15 -11 9 -23 14
-27 10z m29 -31 c-3 -3 1 -12 8 -21 11 -14 10 -15 -7 -1 -11 8 -27 15 -38 15
-10 0 -18 5 -18 10 0 6 4 10 9 10 5 0 13 3 17 7 4 4 13 3 21 -4 7 -6 11 -13 8
-16z"/>
<path d="M1666 2052 c-3 -5 1 -9 9 -9 8 0 12 4 9 9 -3 4 -7 8 -9 8 -2 0 -6 -4
-9 -8z"/>
<path d="M2136 2212 c-3 -5 4 -21 15 -38 10 -16 19 -24 19 -19 -1 6 -7 19 -15
29 -8 10 -12 23 -9 27 3 5 3 9 0 9 -3 0 -7 -4 -10 -8z"/>
<path d="M2169 2192 c6 -12 16 -24 22 -28 8 -4 8 -1 0 14 -6 12 -16 24 -22 28
-8 4 -8 1 0 -14z"/>
<path d="M2290 2206 c0 -2 7 -7 16 -10 8 -3 12 -2 9 4 -6 10 -25 14 -25 6z"/>
<path d="M2340 2200 c-12 -7 -10 -9 8 -7 12 0 22 5 22 9 0 11 -12 10 -30 -2z"/>
<path d="M2477 2191 c14 -17 33 -20 33 -5 0 3 -4 3 -9 0 -5 -3 -11 1 -15 9 -3
8 -10 15 -16 15 -5 0 -2 -9 7 -19z"/>
<path d="M2597 2191 c-4 -17 -3 -21 5 -13 5 5 8 16 6 23 -3 8 -7 3 -11 -10z"/>
<path d="M2661 2194 c0 -11 3 -14 6 -6 3 7 2 16 -1 19 -3 4 -6 -2 -5 -13z"/>
<path d="M2713 2200 c-34 -14 -28 -21 7 -9 17 6 30 13 30 15 0 6 -12 4 -37 -6z"/>
<path d="M2275 2181 c-4 -7 0 -8 10 -5 10 4 15 2 13 -7 -2 -8 3 -14 11 -14 8
0 15 6 17 13 1 7 0 8 -3 2 -6 -14 -24 -13 -20 1 3 15 -19 23 -28 10z"/>
<path d="M2454 2175 c-4 -8 -11 -12 -16 -9 -6 4 -5 -3 2 -15 9 -18 30 -21 30
-5 0 3 -4 2 -10 -1 -13 -8 -13 1 0 26 6 10 8 19 5 19 -3 0 -8 -7 -11 -15z"/>
<path d="M2747 2169 c6 -22 20 -26 20 -4 0 8 -6 16 -13 19 -7 3 -10 -2 -7 -15z"/>
<path d="M2350 2165 c0 -8 4 -15 10 -15 5 0 7 7 4 15 -4 8 -8 15 -10 15 -2 0
-4 -7 -4 -15z"/>
<path d="M2210 2160 c0 -5 5 -10 11 -10 5 0 7 5 4 10 -3 6 -8 10 -11 10 -2 0
-4 -4 -4 -10z"/>
<path d="M2674 2152 c-9 -14 -8 -18 6 -18 11 0 15 6 12 18 -2 10 -5 18 -6 18
-1 0 -6 -8 -12 -18z"/>
<path d="M1668 2154 c-4 -3 -14 -7 -25 -8 -27 -4 -23 -40 5 -40 12 0 22 4 21
9 -1 6 -6 9 -12 7 -7 -2 -4 4 5 14 15 15 19 15 35 3 16 -13 17 -12 4 4 -14 18
-24 21 -33 11z"/>
<path d="M2401 2153 c-1 -7 -6 -12 -13 -10 -6 1 -14 -6 -16 -15 -2 -10 1 -18
7 -18 6 0 8 7 5 15 -4 10 0 13 15 10 11 -2 24 1 27 7 4 6 3 8 -4 4 -5 -3 -13
0 -15 6 -4 10 -6 10 -6 1z"/>
<path d="M2174 2136 c-3 -9 -11 -13 -17 -9 -6 3 -7 1 -3 -5 4 -7 11 -12 16
-12 10 0 23 31 15 38 -2 3 -7 -3 -11 -12z"/>
<path d="M2320 2139 c-12 -9 -12 -10 4 -5 14 5 17 3 12 -11 -6 -15 -5 -16 5
-5 18 17 -1 35 -21 21z"/>
<path d="M2500 2146 c0 -2 9 -6 20 -9 11 -3 18 -1 14 4 -5 9 -34 13 -34 5z"/>
<path d="M2626 2135 c4 -8 11 -15 16 -15 6 0 5 6 -2 15 -7 8 -14 15 -16 15 -2
0 -1 -7 2 -15z"/>
<path d="M2811 2131 c-8 -5 -9 -11 -3 -15 5 -3 12 1 16 9 6 17 6 18 -13 6z"/>
<path d="M2434 2122 c3 -5 0 -13 -6 -15 -9 -4 -10 -6 -1 -6 17 -1 25 16 12 25
-7 4 -9 3 -5 -4z"/>
<path d="M2490 2118 c0 -4 4 -8 9 -8 6 0 12 4 15 8 3 5 -1 9 -9 9 -8 0 -15 -4
-15 -9z"/>
<path d="M2703 2116 c-3 -6 -3 -8 2 -4 4 4 13 1 19 -8 10 -13 12 -13 12 4 0
20 -23 26 -33 8z"/>
<path d="M2220 2116 c0 -2 7 -6 15 -10 8 -3 15 -1 15 4 0 6 -7 10 -15 10 -8 0
-15 -2 -15 -4z"/>
<path d="M2090 2101 c0 -6 5 -11 11 -11 5 0 7 -5 3 -12 -4 -7 -3 -8 4 -4 7 4
18 4 24 0 9 -6 5 -10 -12 -15 -22 -6 -23 -7 -4 -8 12 -1 27 6 34 14 15 18 31
20 28 3 -2 -8 7 -13 20 -13 12 0 22 4 21 9 0 5 5 13 13 18 10 8 10 9 -2 5 -8
-2 -14 -10 -12 -16 1 -6 -7 -11 -19 -11 -11 0 -18 4 -14 9 8 14 -15 25 -27 13
-8 -8 -19 -5 -40 9 -15 11 -28 16 -28 10z"/>
<path d="M2190 2100 c0 -5 5 -10 10 -10 6 0 10 5 10 10 0 6 -4 10 -10 10 -5 0
-10 -4 -10 -10z"/>
<path d="M2353 2095 c0 -7 6 -11 14 -8 7 3 13 6 13 8 0 2 -6 5 -13 8 -8 3 -14
-1 -14 -8z"/>
<path d="M2468 2103 c6 -2 9 -10 6 -15 -4 -7 -2 -8 5 -4 13 9 5 26 -12 25 -9
0 -8 -2 1 -6z"/>
<path d="M2641 2089 c12 -24 26 -31 26 -14 0 8 -5 11 -10 8 -6 -4 -8 0 -5 9 4
8 0 15 -7 15 -10 0 -11 -5 -4 -18z"/>
<path d="M2814 2080 c0 -15 4 -16 18 -9 10 5 18 13 18 16 0 3 -3 3 -7 0 -3 -4
-11 -3 -17 3 -8 6 -12 3 -12 -10z"/>
<path d="M1510 2080 c0 -5 5 -10 10 -10 6 0 10 5 10 10 0 6 -4 10 -10 10 -5 0
-10 -4 -10 -10z"/>
<path d="M2000 2086 c0 -2 7 -7 16 -10 8 -3 12 -2 9 4 -6 10 -25 14 -25 6z"/>
<path d="M2250 2080 c0 -5 5 -10 10 -10 6 0 10 5 10 10 0 6 -4 10 -10 10 -5 0
-10 -4 -10 -10z"/>
<path d="M2428 2072 c9 -10 19 -17 21 -16 6 5 -20 34 -30 34 -5 0 -1 -8 9 -18z"/>
<path d="M2522 2081 c-11 -6 -9 -9 6 -13 15 -4 19 -2 15 8 -6 16 -4 16 -21 5z"/>
<path d="M1943 2040 c0 -24 2 -26 14 -14 12 12 12 16 0 28 -12 12 -14 10 -14
-14z"/>
<path d="M2485 2060 c-9 -14 4 -32 17 -24 7 5 9 2 6 -8 -4 -8 0 -15 7 -15 10
0 11 5 4 19 -6 10 -15 15 -21 12 -7 -5 -9 -1 -5 9 7 19 2 23 -8 7z"/>
<path d="M2725 2059 c-4 -6 -14 -8 -24 -4 -13 5 -14 4 -3 -6 10 -11 15 -10 29
4 10 9 14 17 11 17 -4 0 -10 -5 -13 -11z"/>
<path d="M2750 2066 c0 -2 7 -7 16 -10 8 -3 12 -2 9 4 -6 10 -25 14 -25 6z"/>
<path d="M2839 2053 c-13 -16 -12 -17 4 -4 16 13 21 21 13 21 -2 0 -10 -8 -17
-17z"/>
<path d="M2225 2043 c-17 -14 -18 -15 -2 -9 15 5 17 2 11 -17 -3 -12 -3 -19 1
-15 6 6 17 59 12 58 -1 0 -11 -8 -22 -17z"/>
<path d="M2273 2042 c1 -12 6 -18 15 -15 7 3 10 9 5 12 -4 3 -11 10 -15 15 -4
4 -6 -1 -5 -12z"/>
<path d="M2420 2050 c0 -5 -5 -9 -11 -7 -6 1 -14 -5 -16 -13 -4 -12 -3 -12 5
-2 5 8 13 13 18 12 5 -1 10 3 12 9 2 6 1 11 -2 11 -3 0 -6 -4 -6 -10z"/>
<path d="M2070 2042 c0 -4 10 -9 22 -9 18 -2 20 0 8 7 -18 12 -30 13 -30 2z"/>
<path d="M2160 2040 c8 -5 20 -10 25 -10 6 0 3 5 -5 10 -8 5 -19 10 -25 10 -5
0 -3 -5 5 -10z"/>
<path d="M2736 2033 c-6 -14 -5 -15 5 -6 7 7 10 15 7 18 -3 3 -9 -2 -12 -12z"/>
<path d="M2800 2040 c-9 -6 -10 -10 -3 -10 6 0 15 5 18 10 8 12 4 12 -15 0z"/>
<path d="M2439 2038 c-5 -18 -6 -38 -1 -34 7 8 12 36 6 36 -2 0 -4 -1 -5 -2z"/>
<path d="M1970 2015 c-19 -23 -8 -25 14 -4 11 11 15 19 9 19 -6 0 -16 -7 -23
-15z"/>
<path d="M2139 2028 c-7 -33 -7 -48 0 -53 5 -3 13 0 17 6 4 7 3 9 -4 5 -7 -4
-10 1 -9 14 1 21 12 27 20 10 3 -6 4 -5 3 2 -2 10 -25 25 -27 16z"/>
<path d="M2315 2023 c3 -3 0 -12 -7 -20 -6 -7 -8 -16 -4 -20 3 -3 6 -1 6 6 0
7 4 10 9 7 11 -7 9 21 -2 29 -4 3 -5 2 -2 -2z"/>
<path d="M2111 2004 c0 -11 3 -14 6 -6 3 7 2 16 -1 19 -3 4 -6 -2 -5 -13z"/>
<path d="M2190 2005 c0 -8 4 -15 8 -15 5 0 9 7 9 15 0 8 -4 15 -9 15 -4 0 -8
-7 -8 -15z"/>
<path d="M1995 2000 c-19 -8 -19 -9 3 -9 12 -1 22 4 22 9 0 6 -1 10 -2 9 -2 0
-12 -4 -23 -9z"/>
<path d="M2455 2000 c-6 -9 -4 -11 5 -5 10 6 12 4 7 -9 -4 -9 -3 -15 2 -11 5
3 11 0 13 -7 3 -7 7 -4 12 7 4 11 4 16 0 12 -4 -4 -12 1 -19 10 -9 13 -14 13
-20 3z"/>
<path d="M2550 2000 c0 -5 5 -10 10 -10 6 0 10 5 10 10 0 6 -4 10 -10 10 -5 0
-10 -4 -10 -10z"/>
<path d="M2706 1998 c3 -4 14 -6 24 -5 31 5 32 13 1 12 -16 0 -27 -3 -25 -7z"/>
<path d="M2826 1998 c3 -4 14 -6 24 -5 31 5 32 13 1 12 -16 0 -27 -3 -25 -7z"/>
<path d="M1940 1991 c0 -6 4 -13 10 -16 6 -3 7 1 4 9 -7 18 -14 21 -14 7z"/>
<path d="M2275 1991 c-3 -5 -2 -12 3 -15 5 -3 9 1 9 9 0 17 -3 19 -12 6z"/>
<path d="M2034 1978 c6 -21 2 -22 -24 -8 -15 8 -18 7 -15 -7 6 -29 24 -69 24
-55 1 7 -4 22 -10 34 -9 17 -8 19 9 14 24 -8 35 4 20 24 -8 12 -9 12 -4 -2z"/>
<path d="M2177 1970 c3 -11 9 -20 15 -20 5 0 4 9 -2 20 -6 11 -12 20 -14 20
-2 0 -2 -9 1 -20z"/>
<path d="M2585 1980 c-3 -6 1 -7 9 -4 18 7 21 14 7 14 -6 0 -13 -4 -16 -10z"/>
<path d="M2330 1976 c0 -2 8 -10 18 -17 15 -13 16 -12 3 4 -13 16 -21 21 -21
13z"/>
<path d="M2435 1971 c-3 -5 -2 -12 3 -15 5 -3 9 1 9 9 0 17 -3 19 -12 6z"/>
<path d="M1902 1950 c7 -11 18 -20 25 -20 8 0 5 8 -7 20 -11 11 -22 20 -25 20
-3 0 0 -9 7 -20z"/>
<path d="M1925 1960 c3 -5 8 -10 11 -10 2 0 4 5 4 10 0 6 -5 10 -11 10 -5 0
-7 -4 -4 -10z"/>
<path d="M2260 1960 c8 -5 20 -10 25 -10 6 0 3 5 -5 10 -8 5 -19 10 -25 10 -5
0 -3 -5 5 -10z"/>
<path d="M2596 1961 c-3 -5 2 -15 12 -22 15 -12 16 -12 5 2 -7 9 -10 19 -6 22
3 4 4 7 0 7 -3 0 -8 -4 -11 -9z"/>
<path d="M1974 1936 c5 -14 2 -17 -9 -12 -8 3 -15 1 -15 -4 0 -14 27 -13 36 1
3 6 1 16 -6 22 -10 9 -12 8 -6 -7z"/>
<path d="M2057 1939 c7 -7 15 -10 18 -7 3 3 -2 9 -12 12 -14 6 -15 5 -6 -5z"/>
<path d="M2713 1933 c0 -9 4 -10 14 -2 7 6 13 12 13 14 0 1 -6 2 -13 2 -8 0
-14 -6 -14 -14z"/>
<path d="M2796 1933 c-6 -14 -5 -15 5 -6 7 7 10 15 7 18 -3 3 -9 -2 -12 -12z"/>
<path d="M2890 1939 c0 -5 5 -7 10 -4 6 3 10 8 10 11 0 2 -4 4 -10 4 -5 0 -10
-5 -10 -11z"/>
<path d="M2293 1925 c0 -7 7 -11 15 -7 9 3 13 1 9 -5 -4 -6 -1 -13 6 -16 7 -3
13 3 13 14 0 10 -2 16 -4 14 -3 -2 -12 0 -22 5 -12 6 -17 5 -17 -5z"/>
<path d="M2455 1929 c-4 -6 -5 -12 -2 -15 2 -3 7 2 10 11 7 17 1 20 -8 4z"/>
<path d="M2573 1925 c0 -8 3 -13 5 -10 3 3 12 -1 21 -7 10 -8 9 -4 -3 10 -23
26 -23 26 -23 7z"/>
<path d="M2162 1916 c7 -8 15 -12 17 -11 5 6 -10 25 -20 25 -5 0 -4 -6 3 -14z"/>
<path d="M2210 1917 c0 -6 3 -7 7 -4 3 4 16 -1 27 -10 20 -17 20 -17 6 1 -14
18 -13 19 3 13 10 -4 16 -3 13 2 -8 12 -56 11 -56 -2z"/>
<path d="M2753 1910 c1 -21 10 -18 13 5 1 8 -2 15 -6 15 -5 0 -8 -9 -7 -20z"/>
<path d="M2830 1919 c0 -5 5 -7 10 -4 6 3 10 8 10 11 0 2 -4 4 -10 4 -5 0 -10
-5 -10 -11z"/>
<path d="M2077 1909 c7 -7 15 -10 18 -7 3 3 -2 9 -12 12 -14 6 -15 5 -6 -5z"/>
<path d="M2466 1905 c-11 -8 -15 -15 -9 -15 6 0 16 7 23 15 16 19 11 19 -14 0z"/>
<path d="M1994 1897 c5 -15 2 -17 -17 -12 -20 5 -20 5 -4 -6 23 -14 40 0 26
21 -9 12 -10 12 -5 -3z"/>
<path d="M2030 1900 c0 -5 7 -6 17 -3 12 5 14 3 8 -7 -5 -9 -4 -11 4 -6 6 4 9
12 6 17 -8 12 -35 12 -35 -1z"/>
<path d="M2620 1905 c0 -2 6 -8 13 -14 10 -8 14 -7 14 2 0 8 -6 14 -14 14 -7
0 -13 -1 -13 -2z"/>
<path d="M2190 1890 c-9 -6 -10 -10 -3 -10 6 0 15 5 18 10 8 12 4 12 -15 0z"/>
<path d="M2494 1889 c-3 -6 -2 -15 3 -20 5 -5 9 -1 9 11 0 23 -2 24 -12 9z"/>
<path d="M2576 1887 c3 -10 9 -15 12 -12 3 3 0 11 -7 18 -10 9 -11 8 -5 -6z"/>
<path d="M1900 1880 c8 -5 22 -9 30 -9 10 0 8 3 -5 9 -27 12 -43 12 -25 0z"/>
<path d="M2030 1871 c0 -7 -5 -9 -12 -5 -7 5 -8 3 -3 -5 5 -9 10 -10 18 -2 6
6 8 14 4 18 -4 3 -7 1 -7 -6z"/>
<path d="M2095 1871 c-3 -5 0 -13 6 -17 7 -4 9 -3 5 4 -3 5 0 13 6 15 9 4 10
6 1 6 -6 1 -14 -3 -18 -8z"/>
<path d="M1888 1863 c6 -2 9 -10 6 -15 -4 -7 -2 -8 5 -4 13 9 5 26 -12 25 -9
0 -8 -2 1 -6z"/>
<path d="M1950 1860 c0 -5 5 -10 10 -10 6 0 10 5 10 10 0 6 -4 10 -10 10 -5 0
-10 -4 -10 -10z"/>
<path d="M2260 1864 c0 -1 8 -8 17 -15 9 -8 14 -9 10 -2 -4 6 -1 13 5 16 7 3
3 4 -9 4 -13 -1 -23 -2 -23 -3z"/>
<path d="M2315 1862 c3 -3 -3 -15 -12 -26 -14 -15 -14 -18 -2 -8 9 6 18 11 20
9 2 -1 3 0 2 2 -2 2 2 9 7 16 7 8 5 12 -5 12 -8 0 -13 -3 -10 -5z"/>
<path d="M2070 1856 c0 -2 8 -10 18 -17 15 -13 16 -12 3 4 -13 16 -21 21 -21
13z"/>
<path d="M2217 1849 c7 -7 15 -10 18 -7 3 3 -2 9 -12 12 -14 6 -15 5 -6 -5z"/>
<path d="M2573 1847 c0 -8 6 -14 14 -14 9 0 10 4 2 14 -6 7 -12 13 -14 13 -1
0 -2 -6 -2 -13z"/>
<path d="M1915 1840 c-3 -6 1 -7 9 -4 18 7 21 14 7 14 -6 0 -13 -4 -16 -10z"/>
<path d="M1997 1843 c-4 -3 -7 -11 -7 -17 0 -6 5 -5 12 2 6 6 9 14 7 17 -3 3
-9 2 -12 -2z"/>
<path d="M2045 1840 c3 -5 8 -10 11 -10 2 0 4 5 4 10 0 6 -5 10 -11 10 -5 0
-7 -4 -4 -10z"/>
<path d="M2115 1820 c6 -9 4 -12 -6 -8 -10 4 -15 -1 -15 -12 0 -10 4 -16 9
-13 4 2 16 -1 25 -9 15 -12 16 -11 4 4 -8 9 -11 22 -8 27 4 5 1 13 -5 17 -8 5
-9 3 -4 -6z"/>
<path d="M2225 1819 c-3 -4 2 -6 10 -5 21 3 28 13 10 13 -9 0 -18 -4 -20 -8z"/>
<path d="M2394 1813 c16 -20 36 -23 36 -6 0 4 -3 3 -7 0 -3 -4 -16 1 -27 10
-21 18 -21 18 -2 -4z"/>
<path d="M2335 1809 c-4 -6 -5 -12 -2 -15 2 -3 7 2 10 11 7 17 1 20 -8 4z"/>
<path d="M1935 1800 c3 -5 8 -10 11 -10 2 0 4 5 4 10 0 6 -5 10 -11 10 -5 0
-7 -4 -4 -10z"/>
<path d="M2010 1799 c0 -5 5 -7 12 -3 7 5 9 2 6 -8 -4 -8 0 -15 7 -15 10 0 11
5 4 19 -11 20 -29 24 -29 7z"/>
<path d="M2259 1793 c-13 -16 -12 -17 4 -4 9 7 17 15 17 17 0 8 -8 3 -21 -13z"/>
<path d="M2515 1799 c-3 -4 2 -6 10 -5 21 3 28 13 10 13 -9 0 -18 -4 -20 -8z"/>
<path d="M2816 1793 c-6 -14 -5 -15 5 -6 7 7 10 15 7 18 -3 3 -9 -2 -12 -12z"/>
<path d="M2330 1776 c0 -2 8 -10 18 -17 15 -13 16 -12 3 4 -13 16 -21 21 -21
13z"/>
<path d="M2096 1758 c3 -5 10 -6 15 -3 13 9 11 12 -6 12 -8 0 -12 -4 -9 -9z"/>
<path d="M2271 1767 c2 -1 13 -9 24 -17 19 -14 19 -14 6 3 -7 9 -18 17 -24 17
-6 0 -8 -1 -6 -3z"/>
<path d="M2780 1766 c0 -2 8 -10 18 -17 15 -13 16 -12 3 4 -13 16 -21 21 -21
13z"/>
<path d="M2839 1753 c-13 -16 -12 -17 4 -4 16 13 21 21 13 21 -2 0 -10 -8 -17
-17z"/>
<path d="M1995 1729 c-4 -6 -5 -12 -2 -15 2 -3 7 2 10 11 7 17 1 20 -8 4z"/>
<path d="M2140 1720 c-9 -6 -10 -10 -3 -10 6 0 15 5 18 10 8 12 4 12 -15 0z"/>
<path d="M2785 1719 c-3 -4 2 -6 10 -5 21 3 28 13 10 13 -9 0 -18 -4 -20 -8z"/>
<path d="M2353 1705 c0 -8 4 -12 9 -9 5 3 6 10 3 15 -9 13 -12 11 -12 -6z"/>
<path d="M2033 1685 c0 -8 4 -12 9 -9 5 3 6 10 3 15 -9 13 -12 11 -12 -6z"/>
<path d="M2111 1685 c4 -3 19 -8 35 -11 16 -3 26 -2 23 1 -4 3 -19 8 -35 11
-16 3 -26 2 -23 -1z"/>
<path d="M2559 1673 c-13 -16 -12 -17 4 -4 9 7 17 15 17 17 0 8 -8 3 -21 -13z"/>
<path d="M2835 1641 c-3 -5 -2 -12 3 -15 5 -3 9 1 9 9 0 17 -3 19 -12 6z"/>
<path d="M2895 1620 c-3 -5 -1 -10 4 -10 6 0 11 5 11 10 0 6 -2 10 -4 10 -3 0
-8 -4 -11 -10z"/>
<path d="M2333 1591 c0 -11 5 -18 9 -15 4 3 5 11 1 19 -7 21 -12 19 -10 -4z"/>
<path d="M2377 1595 c-4 -8 -3 -16 1 -19 4 -3 9 4 9 15 2 23 -3 25 -10 4z"/>
<path d="M2550 1601 c0 -6 4 -13 10 -16 6 -3 7 1 4 9 -7 18 -14 21 -14 7z"/>
<path d="M2857 1595 c-4 -8 -3 -16 1 -19 4 -3 9 4 9 15 2 23 -3 25 -10 4z"/>
<path d="M2095 1580 c3 -5 8 -10 11 -10 2 0 4 5 4 10 0 6 -5 10 -11 10 -5 0
-7 -4 -4 -10z"/>
<path d="M2135 1580 c-3 -5 -1 -10 4 -10 6 0 11 5 11 10 0 6 -2 10 -4 10 -3 0
-8 -4 -11 -10z"/>
<path d="M2170 1579 c0 -5 5 -7 10 -4 6 3 10 8 10 11 0 2 -4 4 -10 4 -5 0 -10
-5 -10 -11z"/>
<path d="M2410 1579 c0 -5 5 -7 10 -4 6 3 10 8 10 11 0 2 -4 4 -10 4 -5 0 -10
-5 -10 -11z"/>
<path d="M2610 1580 c0 -5 5 -10 11 -10 5 0 7 5 4 10 -3 6 -8 10 -11 10 -2 0
-4 -4 -4 -10z"/>
<path d="M2050 1539 c0 -5 5 -7 10 -4 6 3 10 8 10 11 0 2 -4 4 -10 4 -5 0 -10
-5 -10 -11z"/>
<path d="M2379 1548 c-5 -18 -6 -38 -1 -34 7 8 12 36 6 36 -2 0 -4 -1 -5 -2z"/>
<path d="M2696 1542 c-3 -5 1 -9 9 -9 8 0 12 4 9 9 -3 4 -7 8 -9 8 -2 0 -6 -4
-9 -8z"/>
<path d="M2915 1540 c-3 -5 -1 -10 4 -10 6 0 11 5 11 10 0 6 -2 10 -4 10 -3 0
-8 -4 -11 -10z"/>
<path d="M2115 1500 c3 -5 8 -10 11 -10 2 0 4 5 4 10 0 6 -5 10 -11 10 -5 0
-7 -4 -4 -10z"/>
<path d="M2300 1486 c0 -2 8 -10 18 -17 15 -13 16 -12 3 4 -13 16 -21 21 -21
13z"/>
<path d="M2890 1486 c0 -2 7 -7 16 -10 8 -3 12 -2 9 4 -6 10 -25 14 -25 6z"/>
<path d="M2793 1325 c0 -8 4 -12 9 -9 5 3 6 10 3 15 -9 13 -12 11 -12 -6z"/>
</g>
</svg>
